<svg width="163" height="54" viewBox="0 0 163 54" fill="none" xmlns="http://www.w3.org/2000/svg">
<rect width="163" height="54" rx="27" fill="#1877F2"/>
<path d="M35.9995 27C35.9995 22.0289 31.9706 18 26.9995 18C22.0284 18 17.9995 22.0289 17.9995 27C17.9995 31.493 21.2901 35.216 25.5932 35.891V29.6016H23.3081V27H25.5932V25.0172C25.5932 22.7619 26.9362 21.5156 28.9928 21.5156C29.9772 21.5156 31.0073 21.6914 31.0073 21.6914V23.9062H29.8718C28.7538 23.9062 28.4057 24.6006 28.4057 25.3125V27H30.9018L30.5028 29.6016H28.4057V35.891C32.7089 35.216 35.9995 31.493 35.9995 27Z" fill="#1877F2"/>
<path d="M30.5028 29.6016L30.9018 27H28.4057V25.3125C28.4057 24.6006 28.7538 23.9062 29.8718 23.9062H31.0073V21.6914C31.0073 21.6914 29.9772 21.5156 28.9928 21.5156C26.9362 21.5156 25.5933 22.7619 25.5933 25.0172V27H23.3081V29.6016H25.5933V35.891C26.052 35.9631 26.5214 36 26.9995 36C27.4776 36 27.947 35.9631 28.4057 35.891V29.6016H30.5028Z" fill="white"/>
<path d="M57.1177 34.4375H55.1958V20.2188H57.1177V34.4375ZM45.7114 29.5469V23.4375H44.7896V21.8281H51.3052V23.4375H50.3989V29.3516C50.8989 29.3047 51.2791 29.2604 51.5396 29.2188L51.6802 30.6562C50.0083 31.0104 47.6958 31.1875 44.7427 31.1875L44.5239 29.5469H45.7114ZM47.4771 29.5156C47.7114 29.5104 48.0812 29.4974 48.5864 29.4766V23.4375H47.4771V29.5156ZM50.9771 25.3906H52.3521V20.5H54.2427V33.7656H52.3521V27.1719H50.9771V25.3906ZM70.4146 34.4688H68.3989V20.2188H70.4146V34.4688ZM58.9302 26.2812C58.9302 25.2656 59.089 24.375 59.4067 23.6094C59.7297 22.8438 60.175 22.2552 60.7427 21.8438C61.3156 21.4271 61.9666 21.2188 62.6958 21.2188C63.4094 21.2188 64.0474 21.4271 64.6099 21.8438C65.1776 22.2552 65.6229 22.8438 65.9458 23.6094C66.2687 24.375 66.4302 25.2656 66.4302 26.2812C66.4302 27.3021 66.2687 28.1979 65.9458 28.9688C65.6229 29.7344 65.1776 30.3255 64.6099 30.7422C64.0474 31.1536 63.4094 31.3594 62.6958 31.3594C61.9666 31.3594 61.3156 31.1536 60.7427 30.7422C60.175 30.3255 59.7297 29.7344 59.4067 28.9688C59.089 28.1979 58.9302 27.3021 58.9302 26.2812ZM60.8521 26.2812C60.8521 26.974 60.9276 27.5677 61.0786 28.0625C61.2297 28.5521 61.4432 28.9245 61.7192 29.1797C62.0005 29.4297 62.326 29.5521 62.6958 29.5469C63.0552 29.5521 63.3703 29.4297 63.6411 29.1797C63.9172 28.9245 64.1307 28.5521 64.2817 28.0625C64.4328 27.5677 64.5083 26.974 64.5083 26.2812C64.5083 25.5885 64.4328 24.9974 64.2817 24.5078C64.1307 24.0182 63.9172 23.6484 63.6411 23.3984C63.3703 23.1432 63.0552 23.0156 62.6958 23.0156C62.326 23.0156 62.0005 23.1432 61.7192 23.3984C61.4432 23.6484 61.2297 24.0182 61.0786 24.5078C60.9276 24.9974 60.8521 25.5885 60.8521 26.2812ZM79.8208 22.0938C79.8156 22.8021 80.0161 23.4974 80.4224 24.1797C80.8286 24.8568 81.4146 25.4453 82.1802 25.9453C82.9458 26.4401 83.8469 26.776 84.8833 26.9531L84.0083 28.6094C82.7896 28.3698 81.7271 27.9245 80.8208 27.2734C79.9198 26.6172 79.2349 25.8255 78.7661 24.8984C78.287 25.8203 77.5942 26.6094 76.688 27.2656C75.787 27.9167 74.7323 28.3646 73.5239 28.6094L72.6646 26.9531C73.6802 26.7708 74.5682 26.4297 75.3286 25.9297C76.089 25.4297 76.6724 24.8411 77.0786 24.1641C77.4849 23.4818 77.6906 22.7917 77.6958 22.0938V21.0625H79.8208V22.0938ZM72.3364 31.0469H85.3521V32.6875H72.3364V31.0469ZM99.1333 28.5625H93.6177V29.7969H97.5552V34.4375H95.5708V31.3906H87.6021V29.7969H91.6489V28.5625H86.1646V27H99.1333V28.5625ZM87.8208 20.5625H89.7896V21.8594H95.4927V20.5625H97.4771V26.0625H87.8208V20.5625ZM95.4927 24.5V23.3281H89.7896V24.5H95.4927ZM116.696 32.8594H103.68V31.2188H109.165V29.0781H105.18V24.2969H113.227V22.7344H105.165V21.1406H115.196V25.8594H107.18V27.4531H115.524V29.0781H111.149V31.2188H116.696V32.8594ZM128.883 23.2344C128.878 24.125 128.868 24.8698 128.852 25.4688C128.836 26.0625 128.79 26.7474 128.711 27.5234C128.639 28.2995 128.524 29.1458 128.368 30.0625L126.352 29.8906C126.519 29.0417 126.641 28.2396 126.719 27.4844C126.797 26.724 126.844 26.0443 126.86 25.4453C126.881 24.8464 126.894 24.1094 126.899 23.2344V23.125H118.852V21.5312H128.883V23.2344ZM117.508 30.9375H130.477V32.5781H117.508V30.9375ZM143.243 30.4531H141.243V20.2344H143.243V30.4531ZM131.555 24.7188C131.555 24.0365 131.727 23.4219 132.071 22.875C132.415 22.3281 132.881 21.9036 133.469 21.6016C134.063 21.2943 134.722 21.1406 135.446 21.1406C136.165 21.1406 136.821 21.2943 137.415 21.6016C138.008 21.9036 138.477 22.3281 138.821 22.875C139.165 23.4219 139.336 24.0365 139.336 24.7188C139.336 25.4115 139.165 26.0339 138.821 26.5859C138.477 27.1328 138.008 27.5599 137.415 27.8672C136.821 28.1745 136.165 28.3281 135.446 28.3281C134.722 28.3281 134.063 28.1745 133.469 27.8672C132.875 27.5599 132.407 27.1328 132.063 26.5859C131.724 26.0339 131.555 25.4115 131.555 24.7188ZM133.508 24.7188C133.503 25.1042 133.584 25.4401 133.75 25.7266C133.917 26.0078 134.146 26.224 134.438 26.375C134.735 26.5208 135.071 26.5938 135.446 26.5938C135.81 26.5938 136.136 26.5208 136.422 26.375C136.714 26.224 136.943 26.0078 137.11 25.7266C137.282 25.4401 137.368 25.1042 137.368 24.7188C137.368 24.3438 137.282 24.0156 137.11 23.7344C136.943 23.4531 136.714 23.2396 136.422 23.0938C136.131 22.9427 135.805 22.8698 135.446 22.875C135.071 22.8698 134.735 22.9427 134.438 23.0938C134.146 23.2396 133.917 23.4531 133.75 23.7344C133.584 24.0156 133.503 24.3438 133.508 24.7188ZM133.711 29.4219H135.727V32.5938H143.618V34.1875H133.711V29.4219Z" fill="white"/>
</svg>
