<svg width="18" height="18" viewBox="0 0 18 18" fill="none" xmlns="http://www.w3.org/2000/svg">
<path d="M17.9995 9C17.9995 4.02892 13.9706 0 8.9995 0C4.02842 0 -0.00050354 4.02892 -0.00050354 9C-0.00050354 13.493 3.29012 17.216 7.59325 17.891V11.6016H5.30807V9H7.59325V7.01719C7.59325 4.7619 8.93623 3.51562 10.9928 3.51562C11.9772 3.51562 13.0073 3.69141 13.0073 3.69141V5.90625H11.8718C10.7538 5.90625 10.4057 6.6006 10.4057 7.3125V9H12.9018L12.5028 11.6016H10.4057V17.891C14.7089 17.216 17.9995 13.493 17.9995 9Z" fill="#1877F2"/>
<path d="M12.5028 11.6016L12.9018 9H10.4057V7.3125C10.4057 6.6006 10.7538 5.90625 11.8718 5.90625H13.0073V3.69141C13.0073 3.69141 11.9772 3.51562 10.9928 3.51562C8.93624 3.51562 7.59325 4.7619 7.59325 7.01719V9H5.30807V11.6016H7.59325V17.891C8.05203 17.9631 8.52137 18 8.9995 18C9.47762 18 9.94697 17.9631 10.4057 17.891V11.6016H12.5028Z" fill="white"/>
</svg>
