<svg width="26" height="26" viewBox="0 0 26 26" fill="none" xmlns="http://www.w3.org/2000/svg">
<g id="Group">
<path id="Vector" d="M6.66458 19.5031C3.97083 17.8813 2.3125 15.325 2.3125 12.5052C2.3125 7.60521 7.25833 3.75 13.25 3.75C19.2417 3.75 24.1875 7.60521 24.1875 12.5052C24.1875 17.4052 19.2417 21.2604 13.25 21.2604C12.7896 21.2604 12.3313 21.2375 11.8771 21.1927L7.95521 23.7531C7.31458 24.0927 6.95833 24.1958 6.40833 23.8219C5.7625 23.3802 5.7875 22.8927 6.01146 22.1969L6.66458 19.5031ZM4.39583 12.5052C4.39583 14.726 5.87292 16.8 8.33437 18.0469L9.06979 18.4208L8.87604 19.2229L8.45833 20.9396L11.375 19.0333L11.7562 19.0813C12.249 19.1448 12.7479 19.1771 13.25 19.1771C18.1885 19.1771 22.1042 16.125 22.1042 12.5052C22.1042 8.88542 18.1885 5.83333 13.25 5.83333C8.31146 5.83333 4.39583 8.88542 4.39583 12.5052ZM19.4031 12.1448L20.9802 14.3896C21.0173 14.4425 21.0437 14.5021 21.0578 14.5652C21.0719 14.6282 21.0734 14.6935 21.0623 14.7571C21.0511 14.8207 21.0276 14.8816 20.993 14.9361C20.9583 14.9907 20.9133 15.0379 20.8604 15.075C20.8075 15.1121 20.7479 15.1385 20.6848 15.1526C20.6218 15.1667 20.5565 15.1682 20.4929 15.1571C20.4293 15.1459 20.3684 15.1224 20.3139 15.0878C20.2593 15.0531 20.2121 15.0081 20.175 14.9552L18.6875 12.8375L18.2427 13.2677V14.6875C18.2427 14.8179 18.1909 14.943 18.0987 15.0352C18.0065 15.1274 17.8814 15.1792 17.751 15.1792C17.6206 15.1792 17.4956 15.1274 17.4034 15.0352C17.3112 14.943 17.2594 14.8179 17.2594 14.6875V13.1885C17.2409 13.1126 17.2409 13.0333 17.2594 12.9573V10.2938C17.2594 10.1634 17.3112 10.0383 17.4034 9.94609C17.4956 9.85388 17.6206 9.80208 17.751 9.80208C17.8814 9.80208 18.0065 9.85388 18.0987 9.94609C18.1909 10.0383 18.2427 10.1634 18.2427 10.2938V11.9L20.251 9.95625C20.3457 9.87097 20.4697 9.82574 20.597 9.83009C20.7243 9.83445 20.845 9.88804 20.9335 9.97959C21.0221 10.0711 21.0717 10.1935 21.0719 10.3209C21.072 10.4483 21.0227 10.5707 20.9344 10.6625L19.4031 12.1448ZM16.3219 14.15C16.4523 14.15 16.5773 14.2018 16.6695 14.294C16.7617 14.3862 16.8135 14.5113 16.8135 14.6417C16.8135 14.7721 16.7617 14.8971 16.6695 14.9893C16.5773 15.0815 16.4523 15.1333 16.3219 15.1333H14.3094C14.1792 15.1331 14.0544 15.0811 13.9624 14.989C13.8704 14.8968 13.8187 14.7719 13.8187 14.6417V10.3094C13.8157 10.243 13.8261 10.1766 13.8494 10.1144C13.8727 10.0521 13.9084 9.99525 13.9543 9.94718C14.0002 9.89911 14.0554 9.86085 14.1165 9.8347C14.1776 9.80856 14.2434 9.79508 14.3099 9.79508C14.3764 9.79508 14.4421 9.80856 14.5033 9.8347C14.5644 9.86085 14.6196 9.89911 14.6655 9.94718C14.7114 9.99525 14.7471 10.0521 14.7704 10.1144C14.7937 10.1766 14.8041 10.243 14.801 10.3094V14.15H16.3219ZM10.2208 13.0125H11.6104L10.9458 11.2344L10.2208 13.0125ZM12.849 13.5208L13.2083 14.4844C13.2332 14.5453 13.2455 14.6106 13.2446 14.6764C13.2438 14.7422 13.2297 14.8071 13.2033 14.8674C13.1768 14.9276 13.1386 14.9819 13.0908 15.0271C13.043 15.0723 12.9866 15.1075 12.925 15.1305C12.8633 15.1535 12.7977 15.1639 12.732 15.1611C12.6662 15.1583 12.6017 15.1423 12.5423 15.1141C12.4828 15.0859 12.4297 15.0461 12.3859 14.9969C12.3421 14.9478 12.3087 14.8904 12.2875 14.8281L11.9771 13.9958H9.82083L9.47604 14.8427C9.45162 14.9025 9.41567 14.9569 9.37023 15.0028C9.3248 15.0486 9.27077 15.0851 9.21124 15.1101C9.1517 15.1351 9.08782 15.1482 9.02325 15.1485C8.95868 15.1488 8.89467 15.1364 8.8349 15.112C8.77512 15.0876 8.72073 15.0516 8.67485 15.0062C8.62896 14.9607 8.59248 14.9067 8.56747 14.8472C8.54247 14.7876 8.52944 14.7238 8.52912 14.6592C8.5288 14.5946 8.54121 14.5306 8.56562 14.4708L10.2948 10.226C10.3475 10.0884 10.441 9.97005 10.5627 9.88686C10.6844 9.80366 10.8286 9.75956 10.976 9.76042C11.1222 9.76646 11.2631 9.81697 11.3798 9.9052C11.4965 9.99343 11.5835 10.1152 11.6292 10.2542L12.7187 13.1708C12.8035 13.2612 12.8508 13.3803 12.851 13.5042L12.849 13.5208ZM9.38854 10.3146C9.38854 10.5854 9.16979 10.8063 8.89792 10.8063H7.71042V14.6979C7.71042 14.8285 7.65856 14.9536 7.56626 15.0459C7.47396 15.1382 7.34876 15.1901 7.21823 15.1901C7.08769 15.1901 6.9625 15.1382 6.8702 15.0459C6.7779 14.9536 6.72604 14.8285 6.72604 14.6979V10.8063H5.51771C5.38731 10.8063 5.26225 10.7545 5.17005 10.6622C5.07784 10.57 5.02604 10.445 5.02604 10.3146C5.02604 10.1842 5.07784 10.0591 5.17005 9.96692C5.26225 9.87472 5.38731 9.82292 5.51771 9.82292H8.89792C9.16875 9.82292 9.38854 10.0427 9.38854 10.3146Z" fill="#0E111F"/>
</g>
</svg>
