<svg width="47" height="47" viewBox="0 0 47 47" fill="none" xmlns="http://www.w3.org/2000/svg">
<g id="Group 48095628">
<path id="Rectangle 1844" d="M34.5032 2.19926C35.7178 0.984642 37.6871 0.984642 38.9017 2.19926L43.9844 7.28191C45.199 8.49653 45.199 10.4658 43.9844 11.6804L41.4466 14.2182L31.9654 4.73704L34.5032 2.19926Z" fill="#F62525"/>
<rect id="Rectangle 1842" x="32.4934" y="3.79688" width="14.0109" height="35.0006" transform="rotate(45 32.4934 3.79688)" fill="#FFE200"/>
<rect id="Rectangle 1843" x="31.5125" y="2.81689" width="16.7851" height="5.09516" transform="rotate(45 31.5125 2.81689)" fill="#D1CABB"/>
<path id="Polygon 2" d="M7.83187 40.7139C6.49501 41.0149 5.30057 39.8204 5.60149 38.4836L7.83143 28.5768L17.7387 38.484L7.83187 40.7139Z" fill="#F1E7D3"/>
<path id="Polygon 3" d="M7.73717 40.8161C6.37399 41.1528 5.14129 39.9201 5.478 38.5569L6.45135 34.6162L11.6779 39.8427L7.73717 40.8161Z" fill="#706956"/>
</g>
</svg>
