<svg width="30" height="31" viewBox="0 0 30 31" fill="none" xmlns="http://www.w3.org/2000/svg">
<path fill-rule="evenodd" clip-rule="evenodd" d="M6.58478 11.3616C5.91906 11.4785 5.45218 12.1163 5.54197 12.7862L6.12183 17.1125C7.12378 16.9369 8.06053 17.724 8.21424 18.8709C8.36796 20.0177 7.68044 21.0901 6.67857 21.2663L7.16539 24.8985C7.25518 25.5684 7.86764 26.0167 8.53336 25.8998L27.8968 22.4997C28.5625 22.3828 29.0294 21.745 28.9396 21.075L28.4527 17.4423C28.4525 17.4424 28.4523 17.4424 28.4521 17.4424C27.4499 17.6184 26.5129 16.8312 26.3592 15.6842C26.2054 14.5371 26.8932 13.4646 27.8953 13.2886C27.8955 13.2886 27.8957 13.2886 27.8959 13.2885L27.3162 8.96279C27.2264 8.29288 26.6139 7.84458 25.9482 7.96147L6.58478 11.3616Z" fill="#FFB7B2"/>
<path fill-rule="evenodd" clip-rule="evenodd" d="M2.16792 4.37744C1.49202 4.37744 0.944092 4.92537 0.944092 5.60127V9.98117C1.95785 9.9813 2.77964 10.922 2.77964 12.0824C2.77964 13.2427 1.95785 14.1834 0.944092 14.1835V17.8619C0.944092 18.5378 1.49202 19.0857 2.16792 19.0857H21.7492C22.4251 19.0857 22.973 18.5378 22.973 17.8619V14.1838C22.973 14.1838 22.9729 14.1838 22.9729 14.1838C21.959 14.1838 21.1371 13.243 21.1371 12.0826C21.1371 10.9221 21.959 9.98139 22.9729 9.98139C22.9729 9.98139 22.973 9.98139 22.973 9.98139V5.60127C22.973 4.92537 22.4251 4.37744 21.7492 4.37744H2.16792Z" fill="#FF0000"/>
</svg>
