<svg width="20" height="20" viewBox="0 0 20 20" fill="none" xmlns="http://www.w3.org/2000/svg">
<path id="Vector" d="M19.5901 16.1684L12.007 1.49895C11.515 0.537895 10.779 0 9.98896 0C9.19895 0 8.47394 0.548421 7.97294 1.50947L0.408858 16.1695C-0.0811474 17.1179 -0.135148 18.0905 0.270856 18.8326C0.675861 19.5768 1.48687 20 2.48988 20H17.51C18.5131 20 19.3241 19.5768 19.7301 18.8337C20.1351 18.0905 20.0811 17.1295 19.5901 16.1695V16.1684ZM9.99996 4.58632C10.395 4.58632 10.715 4.92947 10.715 5.35263V12.2821C10.715 12.7053 10.395 13.0484 9.99996 13.0484C9.90519 13.0476 9.8115 13.0271 9.72426 12.9881C9.63702 12.9492 9.55793 12.8925 9.49152 12.8213C9.42511 12.7501 9.37269 12.6659 9.33724 12.5734C9.3018 12.4808 9.28403 12.3819 9.28495 12.2821V5.35158C9.28495 4.94 9.60496 4.58632 9.99996 4.58632ZM9.99996 16.8221C9.38095 16.8221 8.88995 16.2853 8.88995 15.6221C8.88995 14.9589 9.39195 14.4211 9.99996 14.4211C10.619 14.4211 11.11 14.9579 11.11 15.6211C11.11 16.2842 10.608 16.8221 9.99996 16.8221Z" fill="#FF0000"/>
</svg>
