<svg width="28" height="28" viewBox="0 0 28 28" fill="none" xmlns="http://www.w3.org/2000/svg">
<circle cx="14.1891" cy="14.1885" r="13.3424" fill="#FEE100"/>
<path d="M18.6352 19.725C17.9159 19.725 17.3329 19.1419 17.3329 18.4227V13.1273L15.2256 17.2936C15.0277 17.6847 14.6267 17.9313 14.1883 17.9313C13.75 17.9313 13.349 17.6847 13.1511 17.2936L11.0438 13.1273V18.4227C11.0438 19.1419 10.4608 19.725 9.74152 19.725C9.02229 19.725 8.43924 19.1419 8.43924 18.4227V10.401C8.43924 9.43442 9.22279 8.65088 10.1893 8.65088C10.8497 8.65088 11.4539 9.0226 11.7515 9.61208L14.1883 14.4375L16.6424 9.60417C16.9393 9.01933 17.5396 8.65088 18.1956 8.65088C19.1576 8.65088 19.9374 9.43075 19.9374 10.3928V18.4227C19.9374 19.1419 19.3544 19.725 18.6352 19.725Z" fill="#EF3125"/>
<circle cx="13.9999" cy="14" r="14" transform="rotate(180 13.9999 14)" fill="#FFE200"/>
<ellipse cx="13.9636" cy="14.1587" rx="9.73587" ry="9.73587" transform="rotate(180 13.9636 14.1587)" fill="#FFB800"/>
<path d="M8.78651 8.8044H11.2619L13.937 15.339H14.0435L16.7185 8.8044H19.194V18.4399H17.2509V12.1316H17.171L14.6557 18.4H13.3248L10.8094 12.105H10.7296V18.4399H8.78651V8.8044Z" fill="#FFE200"/>
</svg>
