<svg width="19" height="14" viewBox="0 0 19 14" fill="none" xmlns="http://www.w3.org/2000/svg">
<path d="M8.16667 14C8.16667 14 7 14 7 12.8333C7 11.6667 8.16667 8.16667 12.8333 8.16667C17.5 8.16667 18.6667 11.6667 18.6667 12.8333C18.6667 14 17.5 14 17.5 14H8.16667ZM12.8333 7C13.7616 7 14.6518 6.63125 15.3082 5.97487C15.9646 5.3185 16.3333 4.42826 16.3333 3.5C16.3333 2.57174 15.9646 1.6815 15.3082 1.02513C14.6518 0.368749 13.7616 0 12.8333 0C11.9051 0 11.0148 0.368749 10.3585 1.02513C9.70208 1.6815 9.33333 2.57174 9.33333 3.5C9.33333 4.42826 9.70208 5.3185 10.3585 5.97487C11.0148 6.63125 11.9051 7 12.8333 7ZM6.08533 14C5.91238 13.6358 5.82613 13.2365 5.83333 12.8333C5.83333 11.2525 6.62667 9.625 8.092 8.49333C7.36061 8.26797 6.59861 8.15777 5.83333 8.16667C1.16667 8.16667 0 11.6667 0 12.8333C0 14 1.16667 14 1.16667 14H6.08533ZM5.25 7C6.02355 7 6.76541 6.69271 7.3124 6.14573C7.85938 5.59875 8.16667 4.85688 8.16667 4.08333C8.16667 3.30979 7.85938 2.56792 7.3124 2.02094C6.76541 1.47396 6.02355 1.16667 5.25 1.16667C4.47645 1.16667 3.73459 1.47396 3.18761 2.02094C2.64062 2.56792 2.33333 3.30979 2.33333 4.08333C2.33333 4.85688 2.64062 5.59875 3.18761 6.14573C3.73459 6.69271 4.47645 7 5.25 7Z" fill="black"/>
</svg>
