<svg width="31" height="31" viewBox="0 0 31 31" fill="none" xmlns="http://www.w3.org/2000/svg">
<path d="M21.1793 4.7041C21.7917 5.78289 21.4592 7.14565 20.4543 7.8139C19.1599 7.8139 18.4084 7.814 17.799 7.81408C17.3092 7.81414 16.9113 7.81419 16.397 7.81417C16.4459 7.18476 16.5826 6.43906 16.8154 5.74826C17.121 4.8412 17.5527 4.14531 18.0559 3.84982C19.1454 3.21011 20.5452 3.58711 21.1793 4.7041Z" fill="#EDEDED" stroke="#7E7E7E"/>
<path d="M10.7868 4.7041C10.1744 5.78289 10.5068 7.14565 11.5117 7.8139C12.8061 7.8139 13.5577 7.814 14.1671 7.81408C14.6568 7.81414 15.0548 7.81419 15.569 7.81417C15.5202 7.18476 15.3835 6.43906 15.1507 5.74826C14.8451 4.8412 14.4134 4.14531 13.9101 3.84982C12.8207 3.21011 11.4209 3.58711 10.7868 4.7041Z" fill="#EDEDED" stroke="#7E7E7E"/>
<rect x="6.39429" y="8.19629" width="19.0562" height="18.4308" fill="#C6C6C6" stroke="#7E7E7E"/>
<rect x="13.5557" y="8.19629" width="4.61574" height="18.4308" fill="#EDEDED" stroke="#7E7E7E"/>
<rect x="4.34741" y="12.4961" width="4.29932" height="22.2652" transform="rotate(-90 4.34741 12.4961)" fill="#EDEDED" stroke="#7E7E7E"/>
</svg>
