<svg width="30" height="31" viewBox="0 0 30 31" fill="none" xmlns="http://www.w3.org/2000/svg">
<mask id="path-1-inside-1_509_12712" fill="white">
<path fill-rule="evenodd" clip-rule="evenodd" d="M6.58472 11.3616C5.919 11.4785 5.45212 12.1163 5.54191 12.7862L6.12177 17.1125C7.12372 16.9369 8.06047 17.724 8.21418 18.8709C8.3679 20.0177 7.68038 21.0901 6.67851 21.2663L7.16533 24.8985C7.25512 25.5684 7.86758 26.0167 8.5333 25.8998L27.8967 22.4997C28.5624 22.3828 29.0293 21.745 28.9395 21.075L28.4526 17.4423C28.4524 17.4424 28.4522 17.4424 28.452 17.4424C27.4499 17.6184 26.5129 16.8312 26.3591 15.6842C26.2054 14.5371 26.8931 13.4646 27.8953 13.2886C27.8955 13.2886 27.8957 13.2886 27.8959 13.2885L27.3161 8.96279C27.2263 8.29288 26.6138 7.84458 25.9481 7.96147L6.58472 11.3616Z"/>
</mask>
<path fill-rule="evenodd" clip-rule="evenodd" d="M6.58472 11.3616C5.919 11.4785 5.45212 12.1163 5.54191 12.7862L6.12177 17.1125C7.12372 16.9369 8.06047 17.724 8.21418 18.8709C8.3679 20.0177 7.68038 21.0901 6.67851 21.2663L7.16533 24.8985C7.25512 25.5684 7.86758 26.0167 8.5333 25.8998L27.8967 22.4997C28.5624 22.3828 29.0293 21.745 28.9395 21.075L28.4526 17.4423C28.4524 17.4424 28.4522 17.4424 28.452 17.4424C27.4499 17.6184 26.5129 16.8312 26.3591 15.6842C26.2054 14.5371 26.8931 13.4646 27.8953 13.2886C27.8955 13.2886 27.8957 13.2886 27.8959 13.2885L27.3161 8.96279C27.2263 8.29288 26.6138 7.84458 25.9481 7.96147L6.58472 11.3616Z" fill="#EDEDED"/>
<path d="M6.58472 11.3616L6.71756 12.3527L6.58472 11.3616ZM6.12177 17.1125L5.13684 17.2855L5.26964 18.2763L6.25433 18.1037L6.12177 17.1125ZM6.67851 21.2663L6.54538 20.2752L5.56077 20.4484L5.69357 21.4392L6.67851 21.2663ZM7.16533 24.8985L6.1804 25.0714L7.16533 24.8985ZM28.9395 21.075L29.9244 20.9021L28.9395 21.075ZM28.4526 17.4423L29.4375 17.2694L29.3047 16.2782L28.3198 16.4512L28.4526 17.4423ZM27.8959 13.2885L28.0287 14.2797L29.0137 14.1067L28.8808 13.1156L27.8959 13.2885ZM25.9481 7.96147L25.8153 6.97033L25.9481 7.96147ZM6.52684 12.6133C6.51042 12.4908 6.59581 12.3741 6.71756 12.3527L6.45188 10.3704C5.2422 10.5829 4.39382 11.7419 4.55698 12.9592L6.52684 12.6133ZM7.1067 16.9396L6.52684 12.6133L4.55698 12.9592L5.13684 17.2855L7.1067 16.9396ZM9.19911 18.6979C8.98863 17.1275 7.65032 15.8301 5.98921 16.1213L6.25433 18.1037C6.59713 18.0436 7.13231 18.3205 7.22925 19.0438L9.19911 18.6979ZM6.81163 22.2574C8.47261 21.9652 9.4096 20.2684 9.19911 18.6979L7.22925 19.0438C7.32619 19.7671 6.88815 20.2149 6.54538 20.2752L6.81163 22.2574ZM8.15026 24.7255L7.66344 21.0933L5.69357 21.4392L6.1804 25.0714L8.15026 24.7255ZM8.40045 24.9087C8.2787 24.93 8.16668 24.8481 8.15026 24.7255L6.1804 25.0714C6.34356 26.2887 7.45646 27.1034 8.66614 26.8909L8.40045 24.9087ZM27.7639 21.5086L8.40045 24.9087L8.66614 26.8909L28.0295 23.4908L27.7639 21.5086ZM27.9546 21.248C27.971 21.3705 27.8856 21.4872 27.7639 21.5086L28.0295 23.4908C29.2392 23.2784 30.0876 22.1194 29.9244 20.9021L27.9546 21.248ZM27.4677 17.6153L27.9546 21.248L29.9244 20.9021L29.4375 17.2694L27.4677 17.6153ZM28.5849 18.4336C28.5849 18.4336 28.5849 18.4336 28.5849 18.4336L28.5849 18.4336C28.5849 18.4336 28.5849 18.4336 28.5849 18.4336L28.5849 18.4336C28.5849 18.4336 28.5849 18.4336 28.5849 18.4336C28.5849 18.4336 28.5849 18.4336 28.5849 18.4336L28.5849 18.4336C28.5849 18.4336 28.5849 18.4336 28.5849 18.4336L28.5849 18.4336C28.5849 18.4336 28.5849 18.4336 28.5849 18.4336C28.5849 18.4336 28.5849 18.4336 28.5849 18.4336L28.5849 18.4336C28.5849 18.4336 28.5849 18.4336 28.5849 18.4336L28.5849 18.4336C28.5849 18.4336 28.5849 18.4336 28.5849 18.4336C28.5849 18.4336 28.5849 18.4336 28.5849 18.4336C28.5849 18.4336 28.5849 18.4336 28.5849 18.4336C28.5849 18.4336 28.5849 18.4336 28.5849 18.4336L28.5849 18.4336C28.5849 18.4336 28.5849 18.4336 28.5849 18.4336C28.5849 18.4336 28.5849 18.4336 28.5849 18.4336C28.5849 18.4336 28.5849 18.4336 28.5849 18.4336C28.5849 18.4336 28.5849 18.4336 28.5849 18.4336L28.5849 18.4336C28.5849 18.4336 28.5849 18.4336 28.5849 18.4336L28.5849 18.4336C28.5849 18.4336 28.5849 18.4336 28.5849 18.4336C28.5849 18.4336 28.5849 18.4336 28.5849 18.4336L28.5849 18.4336C28.5849 18.4336 28.5849 18.4336 28.5849 18.4336L28.5849 18.4336C28.5849 18.4336 28.5849 18.4336 28.5849 18.4336C28.5849 18.4336 28.5849 18.4336 28.5849 18.4336L28.5849 18.4336C28.5849 18.4336 28.5849 18.4336 28.5849 18.4335L28.5849 18.4335C28.5849 18.4335 28.5849 18.4335 28.5849 18.4335C28.5849 18.4335 28.5849 18.4335 28.5849 18.4335L28.5849 18.4335C28.5849 18.4335 28.5849 18.4335 28.5849 18.4335L28.5849 18.4335C28.5849 18.4335 28.5849 18.4335 28.5849 18.4335C28.5849 18.4335 28.5849 18.4335 28.5849 18.4335C28.5849 18.4335 28.5849 18.4335 28.5849 18.4335C28.5849 18.4335 28.5849 18.4335 28.5849 18.4335L28.5849 18.4335C28.5849 18.4335 28.5849 18.4335 28.5849 18.4335C28.5849 18.4335 28.5849 18.4335 28.5849 18.4335C28.5849 18.4335 28.5849 18.4335 28.5849 18.4335C28.5849 18.4335 28.5849 18.4335 28.5849 18.4335L28.5849 18.4335C28.5849 18.4335 28.5849 18.4335 28.5849 18.4335L28.585 18.4335C28.585 18.4335 28.585 18.4335 28.585 18.4335C28.585 18.4335 28.585 18.4335 28.585 18.4335L28.585 18.4335C28.585 18.4335 28.585 18.4335 28.585 18.4335L28.585 18.4335C28.585 18.4335 28.585 18.4335 28.585 18.4335C28.585 18.4335 28.585 18.4335 28.585 18.4335L28.585 18.4335C28.585 18.4335 28.585 18.4335 28.585 18.4335L28.585 18.4335C28.585 18.4335 28.585 18.4335 28.585 18.4335C28.585 18.4335 28.585 18.4335 28.585 18.4335C28.585 18.4335 28.585 18.4335 28.585 18.4335C28.585 18.4335 28.585 18.4335 28.585 18.4335L28.585 18.4335C28.585 18.4335 28.585 18.4335 28.585 18.4335L28.585 18.4335C28.585 18.4335 28.585 18.4335 28.585 18.4335C28.585 18.4335 28.585 18.4335 28.585 18.4335L28.585 18.4335C28.585 18.4335 28.585 18.4335 28.585 18.4335L28.585 18.4335C28.585 18.4335 28.585 18.4335 28.585 18.4335C28.585 18.4335 28.585 18.4335 28.585 18.4335L28.585 18.4335C28.585 18.4335 28.585 18.4335 28.585 18.4335L28.585 18.4335C28.585 18.4335 28.585 18.4335 28.585 18.4335C28.585 18.4335 28.585 18.4335 28.585 18.4335C28.585 18.4335 28.585 18.4335 28.585 18.4335C28.585 18.4335 28.585 18.4335 28.585 18.4335L28.585 18.4335C28.585 18.4335 28.585 18.4335 28.585 18.4335C28.585 18.4335 28.585 18.4335 28.585 18.4335C28.585 18.4335 28.585 18.4335 28.585 18.4335C28.585 18.4335 28.585 18.4335 28.585 18.4335L28.585 18.4335C28.585 18.4335 28.585 18.4335 28.585 18.4335L28.585 18.4335C28.585 18.4335 28.585 18.4335 28.585 18.4335C28.585 18.4335 28.585 18.4335 28.585 18.4335L28.585 18.4335C28.585 18.4335 28.585 18.4335 28.585 18.4335L28.585 18.4335C28.585 18.4335 28.585 18.4335 28.585 18.4335C28.585 18.4335 28.585 18.4335 28.585 18.4335L28.585 18.4335C28.585 18.4335 28.585 18.4335 28.585 18.4335L28.585 18.4335C28.585 18.4335 28.585 18.4335 28.585 18.4335C28.585 18.4335 28.585 18.4335 28.585 18.4335C28.585 18.4335 28.585 18.4335 28.585 18.4335C28.585 18.4335 28.585 18.4335 28.5851 18.4335L28.5851 18.4335C28.5851 18.4335 28.5851 18.4335 28.5851 18.4335L28.5851 18.4335C28.5851 18.4335 28.5851 18.4335 28.5851 18.4335C28.5851 18.4335 28.5851 18.4335 28.5851 18.4335L28.5851 18.4335C28.5851 18.4335 28.5851 18.4335 28.5851 18.4335L28.5851 18.4335C28.5851 18.4335 28.5851 18.4335 28.5851 18.4335C28.5851 18.4335 28.5851 18.4335 28.5851 18.4335L28.5851 18.4335C28.5851 18.4335 28.5851 18.4335 28.5851 18.4335L28.5851 18.4335C28.5851 18.4335 28.5851 18.4335 28.5851 18.4335C28.5851 18.4335 28.5851 18.4335 28.5851 18.4335C28.5851 18.4335 28.5851 18.4335 28.5851 18.4335C28.5851 18.4335 28.5851 18.4335 28.5851 18.4335L28.5851 18.4335C28.5851 18.4335 28.5851 18.4335 28.5851 18.4335L28.5851 18.4335C28.5851 18.4335 28.5851 18.4335 28.5851 18.4335C28.5851 18.4335 28.5851 18.4335 28.5851 18.4335L28.5851 18.4335C28.5851 18.4335 28.5851 18.4335 28.5851 18.4335L28.5851 18.4335C28.5851 18.4335 28.5851 18.4335 28.5851 18.4335C28.5851 18.4335 28.5851 18.4335 28.5851 18.4335L28.5851 18.4335C28.5851 18.4335 28.5851 18.4335 28.5851 18.4335L28.5851 18.4335C28.5851 18.4335 28.5851 18.4335 28.5851 18.4335C28.5851 18.4335 28.5851 18.4335 28.5851 18.4335C28.5851 18.4335 28.5851 18.4335 28.5851 18.4335C28.5851 18.4335 28.5851 18.4335 28.5851 18.4335L28.5851 18.4335C28.5851 18.4335 28.5851 18.4335 28.5851 18.4335L28.5851 18.4335C28.5851 18.4335 28.5851 18.4335 28.5851 18.4335C28.5851 18.4335 28.5851 18.4335 28.5851 18.4335L28.5851 18.4335C28.5851 18.4335 28.5851 18.4335 28.5851 18.4335L28.5851 18.4335C28.5851 18.4335 28.5851 18.4335 28.5851 18.4335C28.5851 18.4335 28.5851 18.4335 28.5851 18.4335C28.5851 18.4335 28.5851 18.4335 28.5851 18.4335C28.5851 18.4335 28.5851 18.4335 28.5851 18.4335L28.5851 18.4335C28.5851 18.4335 28.5851 18.4335 28.5851 18.4335C28.5851 18.4335 28.5851 18.4335 28.5851 18.4335C28.5851 18.4335 28.5851 18.4335 28.5851 18.4335C28.5851 18.4335 28.5851 18.4335 28.5851 18.4335L28.5851 18.4335C28.5852 18.4335 28.5852 18.4335 28.5852 18.4335L28.5852 18.4335C28.5852 18.4335 28.5852 18.4335 28.5852 18.4335C28.5852 18.4335 28.5852 18.4335 28.5852 18.4335L28.5852 18.4335C28.5852 18.4335 28.5852 18.4335 28.5852 18.4335L28.5852 18.4335C28.5852 18.4335 28.5852 18.4335 28.5852 18.4335C28.5852 18.4335 28.5852 18.4335 28.5852 18.4335C28.5852 18.4335 28.5852 18.4335 28.5852 18.4335C28.5852 18.4335 28.5852 18.4335 28.5852 18.4335L28.5852 18.4335C28.5852 18.4335 28.5852 18.4335 28.5852 18.4335C28.5852 18.4335 28.5852 18.4335 28.5852 18.4335C28.5852 18.4335 28.5852 18.4335 28.5852 18.4335C28.5852 18.4335 28.5852 18.4335 28.5852 18.4335L28.5852 18.4335C28.5852 18.4335 28.5852 18.4335 28.5852 18.4335L28.5852 18.4335C28.5852 18.4335 28.5852 18.4335 28.5852 18.4335C28.5852 18.4335 28.5852 18.4335 28.5852 18.4335L28.5852 18.4335C28.5852 18.4335 28.5852 18.4335 28.5852 18.4335L28.5852 18.4335C28.5852 18.4335 28.5852 18.4335 28.5852 18.4335C28.5852 18.4335 28.5852 18.4335 28.5852 18.4335C28.5852 18.4335 28.5852 18.4335 28.5852 18.4335C28.5852 18.4335 28.5852 18.4335 28.5852 18.4335L28.5852 18.4335C28.5852 18.4335 28.5852 18.4335 28.5852 18.4335L28.5852 18.4335C28.5852 18.4335 28.5852 18.4335 28.5852 18.4335C28.5852 18.4335 28.5852 18.4335 28.5852 18.4335L28.5852 18.4335C28.5852 18.4335 28.5852 18.4335 28.5852 18.4335L28.5852 18.4335C28.5852 18.4335 28.5852 18.4335 28.5852 18.4335C28.5852 18.4335 28.5852 18.4335 28.5852 18.4335L28.5852 18.4335C28.5852 18.4335 28.5852 18.4335 28.5852 18.4335L28.5852 18.4335C28.5852 18.4335 28.5852 18.4335 28.5852 18.4335C28.5852 18.4335 28.5852 18.4335 28.5852 18.4335C28.5852 18.4335 28.5852 18.4335 28.5852 18.4335C28.5852 18.4335 28.5852 18.4335 28.5852 18.4335L28.5852 18.4335C28.5852 18.4335 28.5852 18.4335 28.5852 18.4335L28.5852 18.4335C28.5852 18.4335 28.5852 18.4335 28.5852 18.4335C28.5852 18.4335 28.5852 18.4335 28.5852 18.4335L28.5852 18.4335C28.5852 18.4335 28.5852 18.4335 28.5852 18.4335L28.5852 18.4335C28.5852 18.4335 28.5852 18.4335 28.5852 18.4335C28.5852 18.4335 28.5852 18.4335 28.5853 18.4335L28.5853 18.4335C28.5853 18.4335 28.5853 18.4335 28.5853 18.4335L28.5853 18.4335C28.5853 18.4335 28.5853 18.4335 28.5853 18.4335C28.5853 18.4335 28.5853 18.4335 28.5853 18.4335C28.5853 18.4335 28.5853 18.4335 28.5853 18.4335C28.5853 18.4335 28.5853 18.4335 28.5853 18.4335L28.5853 18.4335C28.5853 18.4335 28.5853 18.4335 28.5853 18.4335L28.5853 18.4335C28.5853 18.4335 28.5853 18.4335 28.5853 18.4335C28.5853 18.4335 28.5853 18.4335 28.5853 18.4335L28.5853 18.4335C28.5853 18.4335 28.5853 18.4335 28.5853 18.4335L28.5853 18.4335C28.5853 18.4335 28.5853 18.4335 28.5853 18.4335C28.5853 18.4335 28.5853 18.4335 28.5853 18.4335L28.5853 18.4335C28.5853 18.4335 28.5853 18.4335 28.5853 18.4335L28.5853 18.4335C28.5853 18.4335 28.5853 18.4335 28.5853 18.4335C28.5853 18.4335 28.5853 18.4335 28.5853 18.4335C28.5853 18.4335 28.5853 18.4335 28.5853 18.4335C28.5853 18.4335 28.5853 18.4335 28.5853 18.4335L28.5853 18.4335C28.5853 18.4335 28.5853 18.4335 28.5853 18.4335C28.5853 18.4335 28.5853 18.4335 28.5853 18.4335C28.5853 18.4335 28.5853 18.4335 28.5853 18.4335C28.5853 18.4335 28.5853 18.4335 28.5853 18.4335L28.5853 18.4335C28.5853 18.4335 28.5853 18.4335 28.5853 18.4335L28.5853 18.4335C28.5853 18.4335 28.5853 18.4335 28.5853 18.4335C28.5853 18.4335 28.5853 18.4335 28.5853 18.4335L28.5853 18.4335C28.5853 18.4335 28.5853 18.4335 28.5853 18.4335L28.5853 18.4335C28.5853 18.4335 28.5853 18.4335 28.5853 18.4335C28.5853 18.4335 28.5853 18.4335 28.5853 18.4335L28.5853 18.4335C28.5853 18.4335 28.5853 18.4335 28.5853 18.4335L28.5853 18.4335C28.5853 18.4335 28.5853 18.4335 28.5853 18.4335C28.5853 18.4335 28.5853 18.4335 28.5853 18.4335C28.5853 18.4335 28.5853 18.4335 28.5853 18.4335C28.5853 18.4335 28.5853 18.4335 28.5853 18.4335L28.5853 18.4335C28.5853 18.4335 28.5853 18.4335 28.5853 18.4335L28.5853 18.4335C28.5853 18.4335 28.5853 18.4335 28.5853 18.4335C28.5853 18.4335 28.5853 18.4335 28.5853 18.4335L28.5853 18.4335C28.5854 18.4335 28.5854 18.4335 28.5854 18.4335L28.5854 18.4335C28.5854 18.4335 28.5854 18.4335 28.5854 18.4335C28.5854 18.4335 28.5854 18.4335 28.5854 18.4335L28.5854 18.4335C28.5854 18.4335 28.5854 18.4335 28.5854 18.4335L28.5854 18.4335C28.5854 18.4335 28.5854 18.4335 28.5854 18.4335C28.5854 18.4335 28.5854 18.4335 28.5854 18.4335C28.5854 18.4335 28.5854 18.4335 28.5854 18.4335C28.5854 18.4335 28.5854 18.4335 28.5854 18.4335L28.5854 18.4335C28.5854 18.4335 28.5854 18.4335 28.5854 18.4335C28.5854 18.4335 28.5854 18.4335 28.5854 18.4335C28.5854 18.4335 28.5854 18.4335 28.5854 18.4335C28.5854 18.4335 28.5854 18.4335 28.5854 18.4335L28.5854 18.4335C28.5854 18.4335 28.5854 18.4335 28.5854 18.4335L28.5854 18.4335C28.5854 18.4335 28.5854 18.4335 28.5854 18.4335C28.5854 18.4335 28.5854 18.4335 28.5854 18.4335L28.5854 18.4335C28.5854 18.4335 28.5854 18.4335 28.5854 18.4335L28.5854 18.4335C28.5854 18.4335 28.5854 18.4335 28.5854 18.4335C28.5854 18.4335 28.5854 18.4335 28.5854 18.4335L28.5854 18.4335C28.5854 18.4335 28.5854 18.4335 28.5854 18.4335L28.5854 18.4335C28.5854 18.4335 28.5854 18.4335 28.5854 18.4335C28.5854 18.4335 28.5854 18.4335 28.5854 18.4335L28.5854 18.4335C28.5854 18.4335 28.5854 18.4335 28.5854 18.4335L28.5854 18.4335C28.5854 18.4335 28.5854 18.4335 28.5854 18.4335C28.5854 18.4335 28.5854 18.4335 28.5854 18.4335C28.5854 18.4335 28.5854 18.4335 28.5854 18.4335C28.5854 18.4335 28.5854 18.4335 28.5854 18.4335L28.5854 18.4335C28.5854 18.4335 28.5854 18.4335 28.5854 18.4335C28.5854 18.4335 28.5854 18.4335 28.5854 18.4335C28.5854 18.4335 28.5854 18.4335 28.5854 18.4335C28.5854 18.4335 28.5854 18.4335 28.5854 18.4335L28.5854 18.4335C28.5854 18.4335 28.5854 18.4335 28.5854 18.4335L28.5854 18.4335C28.5854 18.4335 28.5854 18.4335 28.5854 18.4335C28.5854 18.4335 28.5854 18.4335 28.5854 18.4335L28.5854 18.4335C28.5854 18.4335 28.5854 18.4335 28.5854 18.4335L28.5854 18.4335C28.5854 18.4335 28.5854 18.4335 28.5854 18.4335C28.5854 18.4335 28.5854 18.4335 28.5854 18.4335L28.5855 18.4335C28.5855 18.4335 28.5855 18.4335 28.5855 18.4335L28.5855 18.4335C28.5855 18.4335 28.5855 18.4335 28.5855 18.4335L28.3198 16.4512C28.3198 16.4512 28.3198 16.4512 28.3198 16.4512L28.3198 16.4512C28.3198 16.4512 28.3198 16.4512 28.3198 16.4512L28.3198 16.4512C28.3198 16.4512 28.3198 16.4512 28.3198 16.4512C28.3198 16.4512 28.3198 16.4512 28.3198 16.4512L28.3198 16.4512C28.3198 16.4512 28.3198 16.4512 28.3198 16.4512L28.3198 16.4512C28.3198 16.4512 28.3198 16.4512 28.3198 16.4512C28.3198 16.4512 28.3198 16.4512 28.3197 16.4512L28.3197 16.4512C28.3197 16.4512 28.3197 16.4512 28.3197 16.4512L28.3197 16.4512C28.3197 16.4512 28.3197 16.4512 28.3197 16.4512C28.3197 16.4512 28.3197 16.4512 28.3197 16.4512C28.3197 16.4512 28.3197 16.4512 28.3197 16.4512C28.3197 16.4512 28.3197 16.4512 28.3197 16.4512L28.3197 16.4512C28.3197 16.4512 28.3197 16.4512 28.3197 16.4512C28.3197 16.4512 28.3197 16.4512 28.3197 16.4512C28.3197 16.4512 28.3197 16.4512 28.3197 16.4512C28.3197 16.4512 28.3197 16.4512 28.3197 16.4512L28.3197 16.4512C28.3197 16.4512 28.3197 16.4512 28.3197 16.4512L28.3197 16.4512C28.3197 16.4512 28.3197 16.4512 28.3197 16.4512C28.3197 16.4512 28.3197 16.4512 28.3197 16.4512L28.3197 16.4512C28.3197 16.4512 28.3197 16.4512 28.3197 16.4512L28.3197 16.4512C28.3197 16.4512 28.3197 16.4512 28.3197 16.4512C28.3197 16.4512 28.3197 16.4512 28.3197 16.4512L28.3197 16.4512C28.3197 16.4512 28.3197 16.4512 28.3197 16.4512L28.3197 16.4512C28.3197 16.4512 28.3197 16.4512 28.3197 16.4512C28.3197 16.4512 28.3197 16.4512 28.3197 16.4512L28.3197 16.4512C28.3197 16.4512 28.3197 16.4512 28.3197 16.4512L28.3197 16.4512C28.3197 16.4512 28.3197 16.4512 28.3197 16.4512C28.3197 16.4512 28.3197 16.4512 28.3197 16.4512C28.3197 16.4512 28.3197 16.4512 28.3197 16.4512C28.3197 16.4512 28.3197 16.4512 28.3197 16.4512L28.3197 16.4512C28.3197 16.4512 28.3197 16.4512 28.3197 16.4512C28.3197 16.4512 28.3197 16.4512 28.3197 16.4512C28.3197 16.4512 28.3197 16.4512 28.3197 16.4512C28.3197 16.4512 28.3197 16.4512 28.3197 16.4512L28.3197 16.4512C28.3197 16.4512 28.3197 16.4512 28.3197 16.4512L28.3197 16.4512C28.3197 16.4512 28.3197 16.4512 28.3197 16.4512C28.3197 16.4512 28.3197 16.4512 28.3197 16.4512L28.3197 16.4512C28.3197 16.4512 28.3197 16.4512 28.3197 16.4512L28.3197 16.4512C28.3197 16.4512 28.3197 16.4512 28.3197 16.4512C28.3197 16.4512 28.3197 16.4512 28.3197 16.4512L28.3197 16.4512C28.3197 16.4512 28.3197 16.4512 28.3197 16.4512L28.3197 16.4512C28.3196 16.4512 28.3196 16.4512 28.3196 16.4512C28.3196 16.4512 28.3196 16.4512 28.3196 16.4512C28.3196 16.4512 28.3196 16.4512 28.3196 16.4512C28.3196 16.4512 28.3196 16.4512 28.3196 16.4512L28.3196 16.4512C28.3196 16.4512 28.3196 16.4512 28.3196 16.4512L28.3196 16.4512C28.3196 16.4512 28.3196 16.4512 28.3196 16.4512C28.3196 16.4512 28.3196 16.4512 28.3196 16.4512L28.3196 16.4512C28.3196 16.4512 28.3196 16.4512 28.3196 16.4512L28.3196 16.4512C28.3196 16.4512 28.3196 16.4512 28.3196 16.4512C28.3196 16.4512 28.3196 16.4512 28.3196 16.4512L28.3196 16.4512C28.3196 16.4512 28.3196 16.4512 28.3196 16.4512L28.3196 16.4512C28.3196 16.4512 28.3196 16.4512 28.3196 16.4512C28.3196 16.4512 28.3196 16.4512 28.3196 16.4512C28.3196 16.4512 28.3196 16.4512 28.3196 16.4512C28.3196 16.4512 28.3196 16.4512 28.3196 16.4512L28.3196 16.4512C28.3196 16.4512 28.3196 16.4512 28.3196 16.4512C28.3196 16.4512 28.3196 16.4512 28.3196 16.4512C28.3196 16.4512 28.3196 16.4512 28.3196 16.4512C28.3196 16.4512 28.3196 16.4512 28.3196 16.4512L28.3196 16.4512C28.3196 16.4512 28.3196 16.4512 28.3196 16.4512L28.3196 16.4512C28.3196 16.4512 28.3196 16.4512 28.3196 16.4512C28.3196 16.4512 28.3196 16.4512 28.3196 16.4512L28.3196 16.4512C28.3196 16.4512 28.3196 16.4512 28.3196 16.4512L28.3196 16.4512C28.3196 16.4512 28.3196 16.4512 28.3196 16.4512C28.3196 16.4512 28.3196 16.4512 28.3196 16.4512L28.3196 16.4512C28.3196 16.4512 28.3196 16.4512 28.3196 16.4512L28.3196 16.4512C28.3196 16.4512 28.3196 16.4512 28.3196 16.4512C28.3196 16.4512 28.3196 16.4512 28.3196 16.4512C28.3196 16.4512 28.3196 16.4512 28.3196 16.4512C28.3196 16.4512 28.3196 16.4512 28.3196 16.4512L28.3196 16.4512C28.3196 16.4512 28.3196 16.4512 28.3196 16.4512L28.3196 16.4512C28.3196 16.4512 28.3196 16.4512 28.3196 16.4512C28.3196 16.4512 28.3196 16.4512 28.3196 16.4512L28.3196 16.4512C28.3196 16.4512 28.3196 16.4512 28.3196 16.4512L28.3196 16.4512C28.3196 16.4512 28.3196 16.4512 28.3196 16.4512C28.3196 16.4512 28.3196 16.4512 28.3196 16.4512L28.3195 16.4512C28.3195 16.4512 28.3195 16.4512 28.3195 16.4512L28.3195 16.4512C28.3195 16.4512 28.3195 16.4512 28.3195 16.4512C28.3195 16.4512 28.3195 16.4512 28.3195 16.4512C28.3195 16.4512 28.3195 16.4512 28.3195 16.4512C28.3195 16.4512 28.3195 16.4512 28.3195 16.4512L28.3195 16.4512C28.3195 16.4512 28.3195 16.4512 28.3195 16.4512L28.3195 16.4512C28.3195 16.4512 28.3195 16.4512 28.3195 16.4512C28.3195 16.4512 28.3195 16.4512 28.3195 16.4512L28.3195 16.4512C28.3195 16.4512 28.3195 16.4512 28.3195 16.4512L28.3195 16.4512C28.3195 16.4512 28.3195 16.4512 28.3195 16.4512C28.3195 16.4512 28.3195 16.4512 28.3195 16.4512L28.3195 16.4512C28.3195 16.4512 28.3195 16.4512 28.3195 16.4512L28.3195 16.4512C28.3195 16.4512 28.3195 16.4512 28.3195 16.4512C28.3195 16.4512 28.3195 16.4512 28.3195 16.4512C28.3195 16.4512 28.3195 16.4512 28.3195 16.4512C28.3195 16.4512 28.3195 16.4512 28.3195 16.4512L28.3195 16.4512C28.3195 16.4512 28.3195 16.4512 28.3195 16.4512L28.3195 16.4512C28.3195 16.4512 28.3195 16.4512 28.3195 16.4512C28.3195 16.4512 28.3195 16.4512 28.3195 16.4512L28.3195 16.4512C28.3195 16.4512 28.3195 16.4512 28.3195 16.4512L28.3195 16.4512C28.3195 16.4512 28.3195 16.4512 28.3195 16.4512C28.3195 16.4512 28.3195 16.4512 28.3195 16.4512C28.3195 16.4512 28.3195 16.4512 28.3195 16.4512C28.3195 16.4512 28.3195 16.4512 28.3195 16.4512L28.3195 16.4512C28.3195 16.4512 28.3195 16.4512 28.3195 16.4512C28.3195 16.4512 28.3195 16.4512 28.3195 16.4512C28.3195 16.4512 28.3195 16.4512 28.3195 16.4512C28.3195 16.4512 28.3195 16.4512 28.3195 16.4512L28.3195 16.4512C28.3195 16.4512 28.3195 16.4512 28.3195 16.4512L28.3195 16.4512C28.3195 16.4512 28.3195 16.4512 28.3195 16.4512C28.3195 16.4512 28.3195 16.4512 28.3195 16.4512L28.3195 16.4512C28.3195 16.4512 28.3195 16.4512 28.3195 16.4512L28.3195 16.4512C28.3195 16.4512 28.3195 16.4512 28.3195 16.4512C28.3195 16.4512 28.3195 16.4512 28.3195 16.4512C28.3195 16.4512 28.3195 16.4512 28.3195 16.4512C28.3195 16.4512 28.3195 16.4512 28.3195 16.4512L28.3195 16.4512C28.3194 16.4512 28.3194 16.4512 28.3194 16.4512C28.3194 16.4512 28.3194 16.4512 28.3194 16.4512C28.3194 16.4512 28.3194 16.4512 28.3194 16.4512C28.3194 16.4512 28.3194 16.4512 28.3194 16.4512L28.3194 16.4512C28.3194 16.4512 28.3194 16.4512 28.3194 16.4512L28.3194 16.4512C28.3194 16.4512 28.3194 16.4512 28.3194 16.4512C28.3194 16.4512 28.3194 16.4512 28.3194 16.4512L28.3194 16.4512C28.3194 16.4512 28.3194 16.4512 28.3194 16.4512L28.3194 16.4512C28.3194 16.4512 28.3194 16.4512 28.3194 16.4512C28.3194 16.4512 28.3194 16.4512 28.3194 16.4512C28.3194 16.4512 28.3194 16.4512 28.3194 16.4512C28.3194 16.4512 28.3194 16.4512 28.3194 16.4512L28.3194 16.4512C28.3194 16.4512 28.3194 16.4512 28.3194 16.4512L28.3194 16.4512C28.3194 16.4512 28.3194 16.4512 28.3194 16.4512C28.3194 16.4512 28.3194 16.4512 28.3194 16.4512L28.3194 16.4512C28.3194 16.4512 28.3194 16.4512 28.3194 16.4512L28.3194 16.4512C28.3194 16.4512 28.3194 16.4512 28.3194 16.4512C28.3194 16.4512 28.3194 16.4512 28.3194 16.4512L28.3194 16.4512C28.3194 16.4512 28.3194 16.4512 28.3194 16.4512L28.3194 16.4512C28.3194 16.4512 28.3194 16.4512 28.3194 16.4512C28.3194 16.4512 28.3194 16.4512 28.3194 16.4512C28.3194 16.4512 28.3194 16.4512 28.3194 16.4512C28.3194 16.4512 28.3194 16.4512 28.3194 16.4512L28.3194 16.4512C28.3194 16.4512 28.3194 16.4512 28.3194 16.4512L28.3194 16.4512C28.3194 16.4512 28.3194 16.4512 28.3194 16.4512C28.3194 16.4512 28.3194 16.4512 28.3194 16.4512L28.3194 16.4512C28.3194 16.4513 28.3194 16.4513 28.3194 16.4513L28.3194 16.4513C28.3194 16.4513 28.3194 16.4513 28.3194 16.4513C28.3194 16.4513 28.3194 16.4513 28.3194 16.4513L28.3194 16.4513C28.3194 16.4513 28.3194 16.4513 28.3194 16.4513L28.3194 16.4513C28.3194 16.4513 28.3194 16.4513 28.3194 16.4513C28.3194 16.4513 28.3194 16.4513 28.3194 16.4513C28.3194 16.4513 28.3194 16.4513 28.3194 16.4513C28.3194 16.4513 28.3194 16.4513 28.3194 16.4513L28.3194 16.4513C28.3194 16.4513 28.3194 16.4513 28.3194 16.4513L28.3194 16.4513C28.3193 16.4513 28.3193 16.4513 28.3193 16.4513C28.3193 16.4513 28.3193 16.4513 28.3193 16.4513L28.3193 16.4513C28.3193 16.4513 28.3193 16.4513 28.3193 16.4513L28.3193 16.4513C28.3193 16.4513 28.3193 16.4513 28.3193 16.4513C28.3193 16.4513 28.3193 16.4513 28.3193 16.4513L28.3193 16.4513C28.3193 16.4513 28.3193 16.4513 28.3193 16.4513L28.3193 16.4513C28.3193 16.4513 28.3193 16.4513 28.3193 16.4513C28.3193 16.4513 28.3193 16.4513 28.3193 16.4513C28.3193 16.4513 28.3193 16.4513 28.3193 16.4513C28.3193 16.4513 28.3193 16.4513 28.3193 16.4513L28.3193 16.4513C28.3193 16.4513 28.3193 16.4513 28.3193 16.4513C28.3193 16.4513 28.3193 16.4513 28.3193 16.4513C28.3193 16.4513 28.3193 16.4513 28.3193 16.4513C28.3193 16.4513 28.3193 16.4513 28.3193 16.4513L28.3193 16.4513C28.3193 16.4513 28.3193 16.4513 28.3193 16.4513L28.3193 16.4513C28.3193 16.4513 28.3193 16.4513 28.3193 16.4513C28.3193 16.4513 28.3193 16.4513 28.3193 16.4513L28.3193 16.4513C28.3193 16.4513 28.3193 16.4513 28.3193 16.4513L28.3193 16.4513C28.3193 16.4513 28.3193 16.4513 28.3193 16.4513C28.3193 16.4513 28.3193 16.4513 28.3193 16.4513L28.3193 16.4513C28.3193 16.4513 28.3193 16.4513 28.3193 16.4513L28.3193 16.4513C28.3193 16.4513 28.3193 16.4513 28.3193 16.4513C28.3193 16.4513 28.3193 16.4513 28.3193 16.4513C28.3193 16.4513 28.3193 16.4513 28.3193 16.4513C28.3193 16.4513 28.3193 16.4513 28.3193 16.4513L28.3193 16.4513C28.3193 16.4513 28.3193 16.4513 28.3193 16.4513L28.3193 16.4513C28.3193 16.4513 28.3193 16.4513 28.3193 16.4513C28.3193 16.4513 28.3193 16.4513 28.3193 16.4513L28.3193 16.4513C28.3193 16.4513 28.3193 16.4513 28.3193 16.4513L28.3193 16.4513C28.3193 16.4513 28.3193 16.4513 28.3193 16.4513C28.3193 16.4513 28.3193 16.4513 28.3193 16.4513L28.3193 16.4513C28.3193 16.4513 28.3193 16.4513 28.3193 16.4513L28.3193 16.4513C28.3193 16.4513 28.3193 16.4513 28.3193 16.4513C28.3193 16.4513 28.3193 16.4513 28.3193 16.4513C28.3193 16.4513 28.3193 16.4513 28.3193 16.4513C28.3193 16.4513 28.3193 16.4513 28.3193 16.4513L28.3192 16.4513C28.3192 16.4513 28.3192 16.4513 28.3192 16.4513C28.3192 16.4513 28.3192 16.4513 28.3192 16.4513C28.3192 16.4513 28.3192 16.4513 28.3192 16.4513C28.3192 16.4513 28.3192 16.4513 28.3192 16.4513L28.3192 16.4513C28.3192 16.4513 28.3192 16.4513 28.3192 16.4513L28.3192 16.4513C28.3192 16.4513 28.3192 16.4513 28.3192 16.4513C28.3192 16.4513 28.3192 16.4513 28.3192 16.4513L28.3192 16.4513C28.3192 16.4513 28.3192 16.4513 28.3192 16.4513L28.3192 16.4513C28.3192 16.4513 28.3192 16.4513 28.3192 16.4513C28.3192 16.4513 28.3192 16.4513 28.3192 16.4513L28.3192 16.4513C28.3192 16.4513 28.3192 16.4513 28.3192 16.4513L28.3192 16.4513C28.3192 16.4513 28.3192 16.4513 28.3192 16.4513C28.3192 16.4513 28.3192 16.4513 28.3192 16.4513L28.3192 16.4513C28.3192 16.4513 28.3192 16.4513 28.3192 16.4513L28.3192 16.4513C28.3192 16.4513 28.3192 16.4513 28.3192 16.4513C28.3192 16.4513 28.3192 16.4513 28.3192 16.4513C28.3192 16.4513 28.3192 16.4513 28.3192 16.4513C28.3192 16.4513 28.3192 16.4513 28.3192 16.4513L28.3192 16.4513C28.3192 16.4513 28.3192 16.4513 28.3192 16.4513C28.3192 16.4513 28.3192 16.4513 28.3192 16.4513C28.3192 16.4513 28.3192 16.4513 28.3192 16.4513C28.3192 16.4513 28.3192 16.4513 28.3192 16.4513L28.3192 16.4513C28.3192 16.4513 28.3192 16.4513 28.3192 16.4513L28.3192 16.4513C28.3192 16.4513 28.3192 16.4513 28.3192 16.4513C28.3192 16.4513 28.3192 16.4513 28.3192 16.4513L28.3192 16.4513C28.3192 16.4513 28.3192 16.4513 28.3192 16.4513L28.3192 16.4513C28.3192 16.4513 28.3192 16.4513 28.3192 16.4513C28.3192 16.4513 28.3192 16.4513 28.3192 16.4513L28.3192 16.4513C28.3192 16.4513 28.3192 16.4513 28.3192 16.4513L28.3192 16.4513C28.3192 16.4513 28.3192 16.4513 28.3192 16.4513L28.5849 18.4336ZM25.3742 15.8571C25.5847 17.4278 26.9234 18.7253 28.5849 18.4336L28.3192 16.4513C27.9763 16.5115 27.441 16.2346 27.3441 15.5112L25.3742 15.8571ZM27.7624 12.2975C26.101 12.5892 25.1637 14.2864 25.3742 15.8571L27.3441 15.5112C27.2471 14.7878 27.6853 14.34 28.0281 14.2798L27.7624 12.2975ZM27.763 12.2974C27.763 12.2974 27.763 12.2974 27.763 12.2974L27.763 12.2974C27.763 12.2974 27.763 12.2974 27.763 12.2974L27.763 12.2974C27.763 12.2974 27.763 12.2974 27.763 12.2974C27.763 12.2974 27.763 12.2974 27.763 12.2974L27.763 12.2974C27.763 12.2974 27.763 12.2974 27.763 12.2974L27.763 12.2974C27.763 12.2974 27.763 12.2974 27.763 12.2974C27.763 12.2974 27.763 12.2974 27.763 12.2974L27.763 12.2974C27.763 12.2974 27.763 12.2974 27.763 12.2974L27.763 12.2974C27.763 12.2974 27.763 12.2974 27.763 12.2974C27.763 12.2974 27.763 12.2974 27.763 12.2974C27.763 12.2974 27.763 12.2974 27.763 12.2974C27.763 12.2974 27.763 12.2974 27.763 12.2974L27.763 12.2974C27.763 12.2974 27.763 12.2974 27.763 12.2974C27.763 12.2974 27.763 12.2974 27.763 12.2974C27.763 12.2974 27.763 12.2974 27.763 12.2974C27.763 12.2974 27.763 12.2974 27.763 12.2974L27.763 12.2974C27.763 12.2974 27.763 12.2974 27.763 12.2974L27.763 12.2974C27.763 12.2974 27.763 12.2974 27.763 12.2974C27.763 12.2974 27.763 12.2974 27.763 12.2974L27.763 12.2974C27.763 12.2974 27.763 12.2974 27.763 12.2974L27.763 12.2974C27.763 12.2974 27.763 12.2974 27.763 12.2974C27.763 12.2974 27.763 12.2974 27.763 12.2974L27.763 12.2974C27.763 12.2974 27.763 12.2974 27.763 12.2974L27.763 12.2974C27.763 12.2974 27.763 12.2974 27.763 12.2974C27.763 12.2974 27.763 12.2974 27.763 12.2974L27.763 12.2974C27.763 12.2974 27.763 12.2974 27.763 12.2974L27.763 12.2974C27.763 12.2974 27.763 12.2974 27.763 12.2974C27.763 12.2974 27.763 12.2974 27.763 12.2974C27.763 12.2974 27.763 12.2974 27.763 12.2974C27.763 12.2974 27.763 12.2974 27.7629 12.2974L27.7629 12.2974C27.7629 12.2974 27.7629 12.2974 27.7629 12.2974C27.7629 12.2974 27.7629 12.2974 27.7629 12.2974C27.7629 12.2974 27.7629 12.2974 27.7629 12.2974C27.7629 12.2974 27.7629 12.2974 27.7629 12.2974L27.7629 12.2974C27.7629 12.2974 27.7629 12.2974 27.7629 12.2974L27.7629 12.2974C27.7629 12.2974 27.7629 12.2974 27.7629 12.2974C27.7629 12.2974 27.7629 12.2974 27.7629 12.2974L27.7629 12.2974C27.7629 12.2974 27.7629 12.2974 27.7629 12.2974L27.7629 12.2974C27.7629 12.2974 27.7629 12.2974 27.7629 12.2974C27.7629 12.2974 27.7629 12.2974 27.7629 12.2974L27.7629 12.2974C27.7629 12.2974 27.7629 12.2974 27.7629 12.2974L27.7629 12.2974C27.7629 12.2974 27.7629 12.2974 27.7629 12.2974C27.7629 12.2974 27.7629 12.2974 27.7629 12.2974C27.7629 12.2974 27.7629 12.2974 27.7629 12.2974C27.7629 12.2974 27.7629 12.2974 27.7629 12.2974L27.7629 12.2974C27.7629 12.2974 27.7629 12.2974 27.7629 12.2974L27.7629 12.2974C27.7629 12.2974 27.7629 12.2974 27.7629 12.2974C27.7629 12.2974 27.7629 12.2974 27.7629 12.2974L27.7629 12.2974C27.7629 12.2974 27.7629 12.2974 27.7629 12.2974L27.7629 12.2974C27.7629 12.2974 27.7629 12.2974 27.7629 12.2974C27.7629 12.2974 27.7629 12.2974 27.7629 12.2974L27.7629 12.2974C27.7629 12.2974 27.7629 12.2974 27.7629 12.2974L27.7629 12.2974C27.7629 12.2974 27.7629 12.2974 27.7629 12.2974C27.7629 12.2974 27.7629 12.2974 27.7629 12.2974C27.7629 12.2974 27.7629 12.2974 27.7629 12.2974C27.7629 12.2974 27.7629 12.2974 27.7629 12.2974L27.7629 12.2974C27.7629 12.2974 27.7629 12.2974 27.7629 12.2974C27.7629 12.2974 27.7629 12.2974 27.7629 12.2974C27.7629 12.2974 27.7629 12.2974 27.7629 12.2974C27.7629 12.2974 27.7629 12.2974 27.7629 12.2974L27.7629 12.2974C27.7629 12.2974 27.7629 12.2974 27.7629 12.2974L27.7629 12.2974C27.7629 12.2974 27.7629 12.2974 27.7629 12.2974C27.7629 12.2974 27.7629 12.2974 27.7629 12.2974L27.7629 12.2974C27.7629 12.2974 27.7629 12.2974 27.7629 12.2974L27.7629 12.2974C27.7628 12.2974 27.7628 12.2974 27.7628 12.2974C27.7628 12.2974 27.7628 12.2974 27.7628 12.2974L27.7628 12.2974C27.7628 12.2974 27.7628 12.2974 27.7628 12.2974L27.7628 12.2974C27.7628 12.2974 27.7628 12.2974 27.7628 12.2974C27.7628 12.2974 27.7628 12.2974 27.7628 12.2974C27.7628 12.2974 27.7628 12.2974 27.7628 12.2974C27.7628 12.2974 27.7628 12.2974 27.7628 12.2974L27.7628 12.2974C27.7628 12.2974 27.7628 12.2974 27.7628 12.2974L27.7628 12.2974C27.7628 12.2974 27.7628 12.2974 27.7628 12.2974C27.7628 12.2974 27.7628 12.2974 27.7628 12.2974L27.7628 12.2974C27.7628 12.2974 27.7628 12.2974 27.7628 12.2974L27.7628 12.2974C27.7628 12.2974 27.7628 12.2974 27.7628 12.2974C27.7628 12.2974 27.7628 12.2974 27.7628 12.2974L27.7628 12.2974C27.7628 12.2974 27.7628 12.2974 27.7628 12.2974L27.7628 12.2974C27.7628 12.2974 27.7628 12.2974 27.7628 12.2974C27.7628 12.2974 27.7628 12.2974 27.7628 12.2974C27.7628 12.2974 27.7628 12.2974 27.7628 12.2974C27.7628 12.2974 27.7628 12.2974 27.7628 12.2974L27.7628 12.2974C27.7628 12.2974 27.7628 12.2974 27.7628 12.2974L27.7628 12.2974C27.7628 12.2974 27.7628 12.2974 27.7628 12.2974C27.7628 12.2974 27.7628 12.2974 27.7628 12.2974L27.7628 12.2974C27.7628 12.2974 27.7628 12.2974 27.7628 12.2974L27.7628 12.2974C27.7628 12.2974 27.7628 12.2974 27.7628 12.2974C27.7628 12.2974 27.7628 12.2974 27.7628 12.2974L27.7628 12.2974C27.7628 12.2974 27.7628 12.2974 27.7628 12.2974L27.7628 12.2974C27.7628 12.2974 27.7628 12.2974 27.7628 12.2974C27.7628 12.2974 27.7628 12.2974 27.7628 12.2974C27.7628 12.2974 27.7628 12.2974 27.7628 12.2974C27.7628 12.2974 27.7628 12.2974 27.7628 12.2974L27.7628 12.2974C27.7628 12.2975 27.7628 12.2975 27.7628 12.2975L27.7628 12.2975C27.7628 12.2975 27.7628 12.2975 27.7628 12.2975C27.7628 12.2975 27.7628 12.2975 27.7628 12.2975L27.7628 12.2975C27.7628 12.2975 27.7628 12.2975 27.7628 12.2975L27.7628 12.2975C27.7628 12.2975 27.7628 12.2975 27.7628 12.2975C27.7628 12.2975 27.7628 12.2975 27.7628 12.2975C27.7627 12.2975 27.7627 12.2975 27.7627 12.2975C27.7627 12.2975 27.7627 12.2975 27.7627 12.2975L27.7627 12.2975C27.7627 12.2975 27.7627 12.2975 27.7627 12.2975C27.7627 12.2975 27.7627 12.2975 27.7627 12.2975C27.7627 12.2975 27.7627 12.2975 27.7627 12.2975C27.7627 12.2975 27.7627 12.2975 27.7627 12.2975L27.7627 12.2975C27.7627 12.2975 27.7627 12.2975 27.7627 12.2975L27.7627 12.2975C27.7627 12.2975 27.7627 12.2975 27.7627 12.2975C27.7627 12.2975 27.7627 12.2975 27.7627 12.2975L27.7627 12.2975C27.7627 12.2975 27.7627 12.2975 27.7627 12.2975L27.7627 12.2975C27.7627 12.2975 27.7627 12.2975 27.7627 12.2975C27.7627 12.2975 27.7627 12.2975 27.7627 12.2975C27.7627 12.2975 27.7627 12.2975 27.7627 12.2975C27.7627 12.2975 27.7627 12.2975 27.7627 12.2975L27.7627 12.2975C27.7627 12.2975 27.7627 12.2975 27.7627 12.2975C27.7627 12.2975 27.7627 12.2975 27.7627 12.2975C27.7627 12.2975 27.7627 12.2975 27.7627 12.2975C27.7627 12.2975 27.7627 12.2975 27.7627 12.2975L27.7627 12.2975C27.7627 12.2975 27.7627 12.2975 27.7627 12.2975L27.7627 12.2975C27.7627 12.2975 27.7627 12.2975 27.7627 12.2975C27.7627 12.2975 27.7627 12.2975 27.7627 12.2975L27.7627 12.2975C27.7627 12.2975 27.7627 12.2975 27.7627 12.2975L27.7627 12.2975C27.7627 12.2975 27.7627 12.2975 27.7627 12.2975C27.7627 12.2975 27.7627 12.2975 27.7627 12.2975C27.7627 12.2975 27.7627 12.2975 27.7627 12.2975C27.7627 12.2975 27.7627 12.2975 27.7627 12.2975L27.7627 12.2975C27.7627 12.2975 27.7627 12.2975 27.7627 12.2975L27.7627 12.2975C27.7627 12.2975 27.7627 12.2975 27.7627 12.2975C27.7627 12.2975 27.7627 12.2975 27.7627 12.2975L27.7627 12.2975C27.7627 12.2975 27.7627 12.2975 27.7627 12.2975L27.7627 12.2975C27.7627 12.2975 27.7627 12.2975 27.7627 12.2975C27.7627 12.2975 27.7627 12.2975 27.7627 12.2975L27.7627 12.2975C27.7627 12.2975 27.7627 12.2975 27.7627 12.2975L27.7627 12.2975C27.7627 12.2975 27.7627 12.2975 27.7627 12.2975C27.7627 12.2975 27.7627 12.2975 27.7627 12.2975C27.7627 12.2975 27.7627 12.2975 27.7627 12.2975C27.7627 12.2975 27.7627 12.2975 27.7627 12.2975L27.7627 12.2975C27.7626 12.2975 27.7626 12.2975 27.7626 12.2975L27.7626 12.2975C27.7626 12.2975 27.7626 12.2975 27.7626 12.2975C27.7626 12.2975 27.7626 12.2975 27.7626 12.2975L27.7626 12.2975C27.7626 12.2975 27.7626 12.2975 27.7626 12.2975L27.7626 12.2975C27.7626 12.2975 27.7626 12.2975 27.7626 12.2975C27.7626 12.2975 27.7626 12.2975 27.7626 12.2975L27.7626 12.2975C27.7626 12.2975 27.7626 12.2975 27.7626 12.2975L27.7626 12.2975C27.7626 12.2975 27.7626 12.2975 27.7626 12.2975C27.7626 12.2975 27.7626 12.2975 27.7626 12.2975C27.7626 12.2975 27.7626 12.2975 27.7626 12.2975C27.7626 12.2975 27.7626 12.2975 27.7626 12.2975L27.7626 12.2975C27.7626 12.2975 27.7626 12.2975 27.7626 12.2975L27.7626 12.2975C27.7626 12.2975 27.7626 12.2975 27.7626 12.2975C27.7626 12.2975 27.7626 12.2975 27.7626 12.2975L27.7626 12.2975C27.7626 12.2975 27.7626 12.2975 27.7626 12.2975L27.7626 12.2975C27.7626 12.2975 27.7626 12.2975 27.7626 12.2975C27.7626 12.2975 27.7626 12.2975 27.7626 12.2975L27.7626 12.2975C27.7626 12.2975 27.7626 12.2975 27.7626 12.2975L27.7626 12.2975C27.7626 12.2975 27.7626 12.2975 27.7626 12.2975C27.7626 12.2975 27.7626 12.2975 27.7626 12.2975C27.7626 12.2975 27.7626 12.2975 27.7626 12.2975C27.7626 12.2975 27.7626 12.2975 27.7626 12.2975L27.7626 12.2975C27.7626 12.2975 27.7626 12.2975 27.7626 12.2975C27.7626 12.2975 27.7626 12.2975 27.7626 12.2975C27.7626 12.2975 27.7626 12.2975 27.7626 12.2975C27.7626 12.2975 27.7626 12.2975 27.7626 12.2975L27.7626 12.2975C27.7626 12.2975 27.7626 12.2975 27.7626 12.2975L27.7626 12.2975C27.7626 12.2975 27.7626 12.2975 27.7626 12.2975C27.7626 12.2975 27.7626 12.2975 27.7626 12.2975L27.7626 12.2975C27.7626 12.2975 27.7626 12.2975 27.7626 12.2975L27.7626 12.2975C27.7626 12.2975 27.7626 12.2975 27.7626 12.2975C27.7626 12.2975 27.7626 12.2975 27.7626 12.2975L27.7626 12.2975C27.7626 12.2975 27.7626 12.2975 27.7626 12.2975L27.7626 12.2975C27.7626 12.2975 27.7626 12.2975 27.7626 12.2975C27.7626 12.2975 27.7626 12.2975 27.7626 12.2975C27.7625 12.2975 27.7625 12.2975 27.7625 12.2975C27.7625 12.2975 27.7625 12.2975 27.7625 12.2975L27.7625 12.2975C27.7625 12.2975 27.7625 12.2975 27.7625 12.2975L27.7625 12.2975C27.7625 12.2975 27.7625 12.2975 27.7625 12.2975C27.7625 12.2975 27.7625 12.2975 27.7625 12.2975L27.7625 12.2975C27.7625 12.2975 27.7625 12.2975 27.7625 12.2975L27.7625 12.2975C27.7625 12.2975 27.7625 12.2975 27.7625 12.2975C27.7625 12.2975 27.7625 12.2975 27.7625 12.2975L27.7625 12.2975C27.7625 12.2975 27.7625 12.2975 27.7625 12.2975L27.7625 12.2975C27.7625 12.2975 27.7625 12.2975 27.7625 12.2975C27.7625 12.2975 27.7625 12.2975 27.7625 12.2975C27.7625 12.2975 27.7625 12.2975 27.7625 12.2975C27.7625 12.2975 27.7625 12.2975 27.7625 12.2975L27.7625 12.2975C27.7625 12.2975 27.7625 12.2975 27.7625 12.2975C27.7625 12.2975 27.7625 12.2975 27.7625 12.2975C27.7625 12.2975 27.7625 12.2975 27.7625 12.2975C27.7625 12.2975 27.7625 12.2975 27.7625 12.2975L27.7625 12.2975C27.7625 12.2975 27.7625 12.2975 27.7625 12.2975L27.7625 12.2975C27.7625 12.2975 27.7625 12.2975 27.7625 12.2975C27.7625 12.2975 27.7625 12.2975 27.7625 12.2975L27.7625 12.2975C27.7625 12.2975 27.7625 12.2975 27.7625 12.2975L27.7625 12.2975C27.7625 12.2975 27.7625 12.2975 27.7625 12.2975C27.7625 12.2975 27.7625 12.2975 27.7625 12.2975L27.7625 12.2975C27.7625 12.2975 27.7625 12.2975 27.7625 12.2975L27.7625 12.2975C27.7625 12.2975 27.7625 12.2975 27.7625 12.2975C27.7625 12.2975 27.7625 12.2975 27.7625 12.2975L27.7625 12.2975C27.7625 12.2975 27.7625 12.2975 27.7625 12.2975L27.7625 12.2975C27.7625 12.2975 27.7625 12.2975 27.7625 12.2975C27.7625 12.2975 27.7625 12.2975 27.7625 12.2975C27.7625 12.2975 27.7625 12.2975 27.7625 12.2975C27.7625 12.2975 27.7625 12.2975 27.7625 12.2975L27.7625 12.2975C27.7625 12.2975 27.7625 12.2975 27.7625 12.2975C27.7625 12.2975 27.7625 12.2975 27.7625 12.2975C27.7625 12.2975 27.7625 12.2975 27.7625 12.2975C27.7625 12.2975 27.7625 12.2975 27.7625 12.2975L27.7625 12.2975C27.7625 12.2975 27.7625 12.2975 27.7625 12.2975L27.7624 12.2975C27.7624 12.2975 27.7624 12.2975 27.7624 12.2975C27.7624 12.2975 27.7624 12.2975 27.7624 12.2975L27.7624 12.2975C27.7624 12.2975 27.7624 12.2975 27.7624 12.2975L27.7624 12.2975C27.7624 12.2975 27.7624 12.2975 27.7624 12.2975C27.7624 12.2975 27.7624 12.2975 27.7624 12.2975L27.7624 12.2975C27.7624 12.2975 27.7624 12.2975 27.7624 12.2975L27.7624 12.2975C27.7624 12.2975 27.7624 12.2975 27.7624 12.2975L28.0281 14.2798C28.0281 14.2798 28.0281 14.2798 28.0281 14.2798L28.0281 14.2798C28.0281 14.2798 28.0281 14.2798 28.0281 14.2798L28.0281 14.2798C28.0281 14.2798 28.0281 14.2798 28.0281 14.2798C28.0281 14.2798 28.0281 14.2798 28.0281 14.2798L28.0281 14.2798C28.0281 14.2798 28.0281 14.2798 28.0281 14.2798L28.0281 14.2798C28.0281 14.2798 28.0281 14.2798 28.0281 14.2798C28.0281 14.2798 28.0281 14.2798 28.0281 14.2798L28.0281 14.2798C28.0281 14.2798 28.0281 14.2798 28.0281 14.2798L28.0281 14.2798C28.0281 14.2798 28.0281 14.2798 28.0281 14.2798C28.0281 14.2798 28.0281 14.2798 28.0281 14.2798C28.0281 14.2798 28.0281 14.2798 28.0281 14.2798C28.0281 14.2798 28.0281 14.2798 28.0281 14.2798L28.0282 14.2798C28.0282 14.2798 28.0282 14.2798 28.0282 14.2798C28.0282 14.2798 28.0282 14.2798 28.0282 14.2798C28.0282 14.2798 28.0282 14.2798 28.0282 14.2798C28.0282 14.2798 28.0282 14.2798 28.0282 14.2798L28.0282 14.2798C28.0282 14.2798 28.0282 14.2798 28.0282 14.2798L28.0282 14.2798C28.0282 14.2798 28.0282 14.2798 28.0282 14.2798C28.0282 14.2798 28.0282 14.2798 28.0282 14.2798L28.0282 14.2798C28.0282 14.2798 28.0282 14.2798 28.0282 14.2798L28.0282 14.2798C28.0282 14.2798 28.0282 14.2798 28.0282 14.2798C28.0282 14.2798 28.0282 14.2798 28.0282 14.2798L28.0282 14.2798C28.0282 14.2798 28.0282 14.2798 28.0282 14.2798L28.0282 14.2798C28.0282 14.2798 28.0282 14.2798 28.0282 14.2798C28.0282 14.2798 28.0282 14.2798 28.0282 14.2798L28.0282 14.2798C28.0282 14.2798 28.0282 14.2798 28.0282 14.2798L28.0282 14.2798C28.0282 14.2798 28.0282 14.2798 28.0282 14.2798C28.0282 14.2798 28.0282 14.2798 28.0282 14.2798C28.0282 14.2798 28.0282 14.2798 28.0282 14.2798C28.0282 14.2798 28.0282 14.2798 28.0282 14.2798L28.0282 14.2798C28.0282 14.2798 28.0282 14.2798 28.0282 14.2798C28.0282 14.2798 28.0282 14.2798 28.0282 14.2798C28.0282 14.2798 28.0282 14.2798 28.0282 14.2798C28.0282 14.2798 28.0282 14.2798 28.0282 14.2798L28.0282 14.2798C28.0282 14.2798 28.0282 14.2798 28.0282 14.2798L28.0282 14.2798C28.0282 14.2798 28.0282 14.2798 28.0282 14.2798C28.0282 14.2798 28.0282 14.2798 28.0282 14.2798L28.0282 14.2798C28.0282 14.2798 28.0282 14.2798 28.0282 14.2798L28.0282 14.2798C28.0282 14.2798 28.0282 14.2798 28.0282 14.2798C28.0282 14.2798 28.0282 14.2798 28.0282 14.2798L28.0282 14.2798C28.0282 14.2798 28.0282 14.2798 28.0282 14.2798L28.0282 14.2798C28.0282 14.2798 28.0282 14.2798 28.0282 14.2798C28.0282 14.2798 28.0282 14.2798 28.0282 14.2798C28.0282 14.2798 28.0282 14.2798 28.0282 14.2798C28.0282 14.2798 28.0282 14.2798 28.0282 14.2798L28.0282 14.2798C28.0282 14.2798 28.0282 14.2798 28.0282 14.2798L28.0282 14.2798C28.0282 14.2798 28.0282 14.2798 28.0282 14.2798C28.0282 14.2798 28.0282 14.2798 28.0283 14.2798L28.0283 14.2798C28.0283 14.2798 28.0283 14.2798 28.0283 14.2798L28.0283 14.2798C28.0283 14.2798 28.0283 14.2798 28.0283 14.2798C28.0283 14.2798 28.0283 14.2798 28.0283 14.2798L28.0283 14.2798C28.0283 14.2798 28.0283 14.2798 28.0283 14.2798L28.0283 14.2798C28.0283 14.2798 28.0283 14.2798 28.0283 14.2798C28.0283 14.2798 28.0283 14.2798 28.0283 14.2798C28.0283 14.2798 28.0283 14.2798 28.0283 14.2798C28.0283 14.2798 28.0283 14.2798 28.0283 14.2798L28.0283 14.2798C28.0283 14.2798 28.0283 14.2798 28.0283 14.2798C28.0283 14.2798 28.0283 14.2798 28.0283 14.2798C28.0283 14.2798 28.0283 14.2798 28.0283 14.2798C28.0283 14.2798 28.0283 14.2798 28.0283 14.2798L28.0283 14.2798C28.0283 14.2798 28.0283 14.2798 28.0283 14.2798L28.0283 14.2798C28.0283 14.2798 28.0283 14.2798 28.0283 14.2798C28.0283 14.2798 28.0283 14.2798 28.0283 14.2798L28.0283 14.2798C28.0283 14.2798 28.0283 14.2798 28.0283 14.2798L28.0283 14.2798C28.0283 14.2798 28.0283 14.2798 28.0283 14.2798C28.0283 14.2798 28.0283 14.2798 28.0283 14.2798L28.0283 14.2798C28.0283 14.2798 28.0283 14.2798 28.0283 14.2798L28.0283 14.2798C28.0283 14.2797 28.0283 14.2797 28.0283 14.2797C28.0283 14.2797 28.0283 14.2797 28.0283 14.2797C28.0283 14.2797 28.0283 14.2797 28.0283 14.2797C28.0283 14.2797 28.0283 14.2797 28.0283 14.2797L28.0283 14.2797C28.0283 14.2797 28.0283 14.2797 28.0283 14.2797L28.0283 14.2797C28.0283 14.2797 28.0283 14.2797 28.0283 14.2797C28.0283 14.2797 28.0283 14.2797 28.0283 14.2797L28.0283 14.2797C28.0283 14.2797 28.0283 14.2797 28.0283 14.2797L28.0283 14.2797C28.0283 14.2797 28.0283 14.2797 28.0283 14.2797C28.0283 14.2797 28.0283 14.2797 28.0283 14.2797L28.0283 14.2797C28.0283 14.2797 28.0283 14.2797 28.0283 14.2797L28.0283 14.2797C28.0283 14.2797 28.0283 14.2797 28.0283 14.2797C28.0283 14.2797 28.0283 14.2797 28.0283 14.2797C28.0283 14.2797 28.0283 14.2797 28.0283 14.2797C28.0283 14.2797 28.0283 14.2797 28.0283 14.2797L28.0283 14.2797C28.0284 14.2797 28.0284 14.2797 28.0284 14.2797L28.0284 14.2797C28.0284 14.2797 28.0284 14.2797 28.0284 14.2797C28.0284 14.2797 28.0284 14.2797 28.0284 14.2797L28.0284 14.2797C28.0284 14.2797 28.0284 14.2797 28.0284 14.2797L28.0284 14.2797C28.0284 14.2797 28.0284 14.2797 28.0284 14.2797C28.0284 14.2797 28.0284 14.2797 28.0284 14.2797L28.0284 14.2797C28.0284 14.2797 28.0284 14.2797 28.0284 14.2797L28.0284 14.2797C28.0284 14.2797 28.0284 14.2797 28.0284 14.2797C28.0284 14.2797 28.0284 14.2797 28.0284 14.2797C28.0284 14.2797 28.0284 14.2797 28.0284 14.2797C28.0284 14.2797 28.0284 14.2797 28.0284 14.2797L28.0284 14.2797C28.0284 14.2797 28.0284 14.2797 28.0284 14.2797L28.0284 14.2797C28.0284 14.2797 28.0284 14.2797 28.0284 14.2797C28.0284 14.2797 28.0284 14.2797 28.0284 14.2797L28.0284 14.2797C28.0284 14.2797 28.0284 14.2797 28.0284 14.2797L28.0284 14.2797C28.0284 14.2797 28.0284 14.2797 28.0284 14.2797C28.0284 14.2797 28.0284 14.2797 28.0284 14.2797C28.0284 14.2797 28.0284 14.2797 28.0284 14.2797C28.0284 14.2797 28.0284 14.2797 28.0284 14.2797L28.0284 14.2797C28.0284 14.2797 28.0284 14.2797 28.0284 14.2797C28.0284 14.2797 28.0284 14.2797 28.0284 14.2797C28.0284 14.2797 28.0284 14.2797 28.0284 14.2797C28.0284 14.2797 28.0284 14.2797 28.0284 14.2797L28.0284 14.2797C28.0284 14.2797 28.0284 14.2797 28.0284 14.2797L28.0284 14.2797C28.0284 14.2797 28.0284 14.2797 28.0284 14.2797C28.0284 14.2797 28.0284 14.2797 28.0284 14.2797L28.0284 14.2797C28.0284 14.2797 28.0284 14.2797 28.0284 14.2797L28.0284 14.2797C28.0284 14.2797 28.0284 14.2797 28.0284 14.2797C28.0284 14.2797 28.0284 14.2797 28.0284 14.2797C28.0284 14.2797 28.0284 14.2797 28.0284 14.2797C28.0284 14.2797 28.0284 14.2797 28.0284 14.2797L28.0284 14.2797C28.0284 14.2797 28.0284 14.2797 28.0284 14.2797C28.0284 14.2797 28.0284 14.2797 28.0284 14.2797C28.0284 14.2797 28.0284 14.2797 28.0284 14.2797C28.0284 14.2797 28.0284 14.2797 28.0284 14.2797L28.0284 14.2797C28.0284 14.2797 28.0284 14.2797 28.0284 14.2797L28.0284 14.2797C28.0284 14.2797 28.0284 14.2797 28.0284 14.2797C28.0284 14.2797 28.0284 14.2797 28.0285 14.2797L28.0285 14.2797C28.0285 14.2797 28.0285 14.2797 28.0285 14.2797L28.0285 14.2797C28.0285 14.2797 28.0285 14.2797 28.0285 14.2797C28.0285 14.2797 28.0285 14.2797 28.0285 14.2797C28.0285 14.2797 28.0285 14.2797 28.0285 14.2797C28.0285 14.2797 28.0285 14.2797 28.0285 14.2797L28.0285 14.2797C28.0285 14.2797 28.0285 14.2797 28.0285 14.2797L28.0285 14.2797C28.0285 14.2797 28.0285 14.2797 28.0285 14.2797C28.0285 14.2797 28.0285 14.2797 28.0285 14.2797L28.0285 14.2797C28.0285 14.2797 28.0285 14.2797 28.0285 14.2797L28.0285 14.2797C28.0285 14.2797 28.0285 14.2797 28.0285 14.2797C28.0285 14.2797 28.0285 14.2797 28.0285 14.2797L28.0285 14.2797C28.0285 14.2797 28.0285 14.2797 28.0285 14.2797L28.0285 14.2797C28.0285 14.2797 28.0285 14.2797 28.0285 14.2797C28.0285 14.2797 28.0285 14.2797 28.0285 14.2797C28.0285 14.2797 28.0285 14.2797 28.0285 14.2797C28.0285 14.2797 28.0285 14.2797 28.0285 14.2797L28.0285 14.2797C28.0285 14.2797 28.0285 14.2797 28.0285 14.2797L28.0285 14.2797C28.0285 14.2797 28.0285 14.2797 28.0285 14.2797C28.0285 14.2797 28.0285 14.2797 28.0285 14.2797L28.0285 14.2797C28.0285 14.2797 28.0285 14.2797 28.0285 14.2797L28.0285 14.2797C28.0285 14.2797 28.0285 14.2797 28.0285 14.2797C28.0285 14.2797 28.0285 14.2797 28.0285 14.2797L28.0285 14.2797C28.0285 14.2797 28.0285 14.2797 28.0285 14.2797L28.0285 14.2797C28.0285 14.2797 28.0285 14.2797 28.0285 14.2797C28.0285 14.2797 28.0285 14.2797 28.0285 14.2797C28.0285 14.2797 28.0285 14.2797 28.0285 14.2797C28.0285 14.2797 28.0285 14.2797 28.0285 14.2797L28.0285 14.2797C28.0285 14.2797 28.0285 14.2797 28.0285 14.2797L28.0285 14.2797C28.0285 14.2797 28.0285 14.2797 28.0285 14.2797C28.0285 14.2797 28.0285 14.2797 28.0285 14.2797L28.0285 14.2797C28.0285 14.2797 28.0285 14.2797 28.0285 14.2797L28.0285 14.2797C28.0285 14.2797 28.0285 14.2797 28.0285 14.2797C28.0285 14.2797 28.0285 14.2797 28.0285 14.2797L28.0285 14.2797C28.0285 14.2797 28.0285 14.2797 28.0286 14.2797L28.0286 14.2797C28.0286 14.2797 28.0286 14.2797 28.0286 14.2797C28.0286 14.2797 28.0286 14.2797 28.0286 14.2797C28.0286 14.2797 28.0286 14.2797 28.0286 14.2797C28.0286 14.2797 28.0286 14.2797 28.0286 14.2797L28.0286 14.2797C28.0286 14.2797 28.0286 14.2797 28.0286 14.2797C28.0286 14.2797 28.0286 14.2797 28.0286 14.2797C28.0286 14.2797 28.0286 14.2797 28.0286 14.2797C28.0286 14.2797 28.0286 14.2797 28.0286 14.2797L28.0286 14.2797C28.0286 14.2797 28.0286 14.2797 28.0286 14.2797L28.0286 14.2797C28.0286 14.2797 28.0286 14.2797 28.0286 14.2797C28.0286 14.2797 28.0286 14.2797 28.0286 14.2797L28.0286 14.2797C28.0286 14.2797 28.0286 14.2797 28.0286 14.2797L28.0286 14.2797C28.0286 14.2797 28.0286 14.2797 28.0286 14.2797C28.0286 14.2797 28.0286 14.2797 28.0286 14.2797L28.0286 14.2797C28.0286 14.2797 28.0286 14.2797 28.0286 14.2797L28.0286 14.2797C28.0286 14.2797 28.0286 14.2797 28.0286 14.2797C28.0286 14.2797 28.0286 14.2797 28.0286 14.2797C28.0286 14.2797 28.0286 14.2797 28.0286 14.2797C28.0286 14.2797 28.0286 14.2797 28.0286 14.2797L28.0286 14.2797C28.0286 14.2797 28.0286 14.2797 28.0286 14.2797L28.0286 14.2797C28.0286 14.2797 28.0286 14.2797 28.0286 14.2797C28.0286 14.2797 28.0286 14.2797 28.0286 14.2797L28.0286 14.2797C28.0286 14.2797 28.0286 14.2797 28.0286 14.2797L28.0286 14.2797C28.0286 14.2797 28.0286 14.2797 28.0286 14.2797C28.0286 14.2797 28.0286 14.2797 28.0286 14.2797L28.0286 14.2797C28.0286 14.2797 28.0286 14.2797 28.0286 14.2797L28.0286 14.2797C28.0286 14.2797 28.0286 14.2797 28.0286 14.2797C28.0286 14.2797 28.0286 14.2797 28.0286 14.2797C28.0286 14.2797 28.0286 14.2797 28.0286 14.2797C28.0286 14.2797 28.0286 14.2797 28.0286 14.2797L28.0286 14.2797C28.0286 14.2797 28.0286 14.2797 28.0286 14.2797C28.0286 14.2797 28.0286 14.2797 28.0286 14.2797C28.0286 14.2797 28.0286 14.2797 28.0286 14.2797C28.0286 14.2797 28.0286 14.2797 28.0286 14.2797L28.0286 14.2797C28.0286 14.2797 28.0286 14.2797 28.0286 14.2797L28.0286 14.2797C28.0287 14.2797 28.0287 14.2797 28.0287 14.2797C28.0287 14.2797 28.0287 14.2797 28.0287 14.2797L28.0287 14.2797C28.0287 14.2797 28.0287 14.2797 28.0287 14.2797L28.0287 14.2797C28.0287 14.2797 28.0287 14.2797 28.0287 14.2797C28.0287 14.2797 28.0287 14.2797 28.0287 14.2797L28.0287 14.2797C28.0287 14.2797 28.0287 14.2797 28.0287 14.2797L28.0287 14.2797C28.0287 14.2797 28.0287 14.2797 28.0287 14.2797C28.0287 14.2797 28.0287 14.2797 28.0287 14.2797L28.0287 14.2797C28.0287 14.2797 28.0287 14.2797 28.0287 14.2797L28.0287 14.2797C28.0287 14.2797 28.0287 14.2797 28.0287 14.2797C28.0287 14.2797 28.0287 14.2797 28.0287 14.2797C28.0287 14.2797 28.0287 14.2797 28.0287 14.2797C28.0287 14.2797 28.0287 14.2797 28.0287 14.2797L28.0287 14.2797C28.0287 14.2797 28.0287 14.2797 28.0287 14.2797C28.0287 14.2797 28.0287 14.2797 28.0287 14.2797C28.0287 14.2797 28.0287 14.2797 28.0287 14.2797C28.0287 14.2797 28.0287 14.2797 28.0287 14.2797L28.0287 14.2797C28.0287 14.2797 28.0287 14.2797 28.0287 14.2797L28.0287 14.2797C28.0287 14.2797 28.0287 14.2797 28.0287 14.2797C28.0287 14.2797 28.0287 14.2797 28.0287 14.2797L28.0287 14.2797C28.0287 14.2797 28.0287 14.2797 28.0287 14.2797L28.0287 14.2797C28.0287 14.2797 28.0287 14.2797 28.0287 14.2797C28.0287 14.2797 28.0287 14.2797 28.0287 14.2797L28.0287 14.2797C28.0287 14.2797 28.0287 14.2797 28.0287 14.2797L28.0287 14.2797C28.0287 14.2797 28.0287 14.2797 28.0287 14.2797L27.763 12.2974ZM26.3312 9.13574L26.9109 13.4615L28.8808 13.1156L28.301 8.78985L26.3312 9.13574ZM26.081 8.95261C26.2027 8.93123 26.3147 9.01322 26.3312 9.13574L28.301 8.78985C28.1379 7.57254 27.025 6.75792 25.8153 6.97033L26.081 8.95261ZM6.71756 12.3527L26.081 8.95261L25.8153 6.97033L6.45188 10.3704L6.71756 12.3527Z" fill="#7E7E7E" mask="url(#path-1-inside-1_509_12712)"/>
<mask id="path-3-inside-2_509_12712" fill="white">
<path fill-rule="evenodd" clip-rule="evenodd" d="M2.16786 4.37744C1.49196 4.37744 0.944031 4.92537 0.944031 5.60127V9.98117C1.95779 9.9813 2.77957 10.922 2.77957 12.0824C2.77957 13.2427 1.95779 14.1834 0.944031 14.1835V17.8619C0.944031 18.5378 1.49196 19.0857 2.16786 19.0857H21.7491C22.425 19.0857 22.9729 18.5378 22.9729 17.8619V14.1838C22.9729 14.1838 22.9729 14.1838 22.9728 14.1838C21.9589 14.1838 21.1371 13.243 21.1371 12.0826C21.1371 10.9221 21.9589 9.98139 22.9728 9.98139C22.9729 9.98139 22.9729 9.98139 22.9729 9.98139V5.60127C22.9729 4.92537 22.425 4.37744 21.7491 4.37744H2.16786Z"/>
</mask>
<path fill-rule="evenodd" clip-rule="evenodd" d="M2.16786 4.37744C1.49196 4.37744 0.944031 4.92537 0.944031 5.60127V9.98117C1.95779 9.9813 2.77957 10.922 2.77957 12.0824C2.77957 13.2427 1.95779 14.1834 0.944031 14.1835V17.8619C0.944031 18.5378 1.49196 19.0857 2.16786 19.0857H21.7491C22.425 19.0857 22.9729 18.5378 22.9729 17.8619V14.1838C22.9729 14.1838 22.9729 14.1838 22.9728 14.1838C21.9589 14.1838 21.1371 13.243 21.1371 12.0826C21.1371 10.9221 21.9589 9.98139 22.9728 9.98139C22.9729 9.98139 22.9729 9.98139 22.9729 9.98139V5.60127C22.9729 4.92537 22.425 4.37744 21.7491 4.37744H2.16786Z" fill="#C6C6C6"/>
<path d="M0.944031 9.98117H-0.0559692V10.9811L0.943909 10.9812L0.944031 9.98117ZM0.944031 14.1835L0.943909 13.1835L-0.0559692 13.1837V14.1835H0.944031ZM22.9729 14.1838H23.9729V13.1838H22.9729V14.1838ZM22.9729 9.98139V10.9814H23.9729V9.98139H22.9729ZM1.94403 5.60127C1.94403 5.47765 2.04424 5.37744 2.16786 5.37744V3.37744C0.939673 3.37744 -0.0559692 4.37308 -0.0559692 5.60127H1.94403ZM1.94403 9.98117V5.60127H-0.0559692V9.98117H1.94403ZM3.77957 12.0824C3.77957 10.5008 2.6327 8.98138 0.944153 8.98117L0.943909 10.9812C1.28288 10.9812 1.77957 11.3431 1.77957 12.0824H3.77957ZM0.944152 15.1835C2.6327 15.1833 3.77957 13.6639 3.77957 12.0824H1.77957C1.77957 12.8216 1.28288 13.1835 0.943909 13.1835L0.944152 15.1835ZM1.94403 17.8619V14.1835H-0.0559692V17.8619H1.94403ZM2.16786 18.0857C2.04424 18.0857 1.94403 17.9855 1.94403 17.8619H-0.0559692C-0.0559692 19.0901 0.939671 20.0857 2.16786 20.0857V18.0857ZM21.7491 18.0857H2.16786V20.0857H21.7491V18.0857ZM21.9729 17.8619C21.9729 17.9855 21.8727 18.0857 21.7491 18.0857V20.0857C22.9773 20.0857 23.9729 19.0901 23.9729 17.8619H21.9729ZM21.9729 14.1838V17.8619H23.9729V14.1838H21.9729ZM22.9728 15.1838C22.9728 15.1838 22.9728 15.1838 22.9728 15.1838C22.9728 15.1838 22.9728 15.1838 22.9728 15.1838H22.9728C22.9728 15.1838 22.9728 15.1838 22.9728 15.1838H22.9728C22.9728 15.1838 22.9728 15.1838 22.9728 15.1838C22.9728 15.1838 22.9728 15.1838 22.9728 15.1838C22.9728 15.1838 22.9728 15.1838 22.9728 15.1838C22.9728 15.1838 22.9728 15.1838 22.9728 15.1838H22.9728C22.9728 15.1838 22.9728 15.1838 22.9728 15.1838H22.9728C22.9728 15.1838 22.9728 15.1838 22.9728 15.1838H22.9728C22.9728 15.1838 22.9728 15.1838 22.9728 15.1838C22.9728 15.1838 22.9728 15.1838 22.9728 15.1838C22.9728 15.1838 22.9728 15.1838 22.9728 15.1838C22.9728 15.1838 22.9728 15.1838 22.9728 15.1838H22.9728C22.9728 15.1838 22.9728 15.1838 22.9728 15.1838H22.9728C22.9728 15.1838 22.9728 15.1838 22.9728 15.1838C22.9728 15.1838 22.9728 15.1838 22.9728 15.1838C22.9728 15.1838 22.9728 15.1838 22.9728 15.1838C22.9728 15.1838 22.9728 15.1838 22.9728 15.1838H22.9729C22.9729 15.1838 22.9729 15.1838 22.9729 15.1838H22.9729C22.9729 15.1838 22.9729 15.1838 22.9729 15.1838H22.9729C22.9729 15.1838 22.9729 15.1838 22.9729 15.1838C22.9729 15.1838 22.9729 15.1838 22.9729 15.1838H22.9729C22.9729 15.1838 22.9729 15.1838 22.9729 15.1838H22.9729C22.9729 15.1838 22.9729 15.1838 22.9729 15.1838H22.9729C22.9729 15.1838 22.9729 15.1838 22.9729 15.1838C22.9729 15.1838 22.9729 15.1838 22.9729 15.1838C22.9729 15.1838 22.9729 15.1838 22.9729 15.1838C22.9729 15.1838 22.9729 15.1838 22.9729 15.1838H22.9729C22.9729 15.1838 22.9729 15.1838 22.9729 15.1838H22.9729C22.9729 15.1838 22.9729 15.1838 22.9729 15.1838H22.9729C22.9729 15.1838 22.9729 15.1838 22.9729 15.1838C22.9729 15.1838 22.9729 15.1838 22.9729 15.1838H22.9729C22.9729 15.1838 22.9729 15.1838 22.9729 15.1838H22.9729C22.9729 15.1838 22.9729 15.1838 22.9729 15.1838H22.9729C22.9729 15.1838 22.9729 15.1838 22.9729 15.1838C22.9729 15.1838 22.9729 15.1838 22.9729 15.1838C22.9729 15.1838 22.9729 15.1838 22.9729 15.1838C22.9729 15.1838 22.9729 15.1838 22.9729 15.1838H22.9729C22.9729 15.1838 22.9729 15.1838 22.9729 15.1838H22.9729C22.9729 15.1838 22.9729 15.1838 22.9729 15.1838C22.9729 15.1838 22.9729 15.1838 22.9729 15.1838C22.9729 15.1838 22.9729 15.1838 22.9729 15.1838C22.9729 15.1838 22.9729 15.1838 22.9729 15.1838H22.9729C22.9729 15.1838 22.9729 15.1838 22.9729 15.1838H22.9729C22.9729 15.1838 22.9729 15.1838 22.9729 15.1838H22.9729C22.9729 15.1838 22.9729 15.1838 22.9729 15.1838C22.9729 15.1838 22.9729 15.1838 22.9729 15.1838C22.9729 15.1838 22.9729 15.1838 22.9729 15.1838C22.9729 15.1838 22.9729 15.1838 22.9729 15.1838H22.9729C22.9729 15.1838 22.9729 15.1838 22.9729 15.1838H22.9729C22.9729 15.1838 22.9729 15.1838 22.9729 15.1838C22.9729 15.1838 22.9729 15.1838 22.9729 15.1838V13.1838C22.9729 13.1838 22.9729 13.1838 22.9729 13.1838C22.9729 13.1838 22.9729 13.1838 22.9729 13.1838H22.9729C22.9729 13.1838 22.9729 13.1838 22.9729 13.1838H22.9729C22.9729 13.1838 22.9729 13.1838 22.9729 13.1838C22.9729 13.1838 22.9729 13.1838 22.9729 13.1838C22.9729 13.1838 22.9729 13.1838 22.9729 13.1838C22.9729 13.1838 22.9729 13.1838 22.9729 13.1838H22.9729C22.9729 13.1838 22.9729 13.1838 22.9729 13.1838H22.9729C22.9729 13.1838 22.9729 13.1838 22.9729 13.1838H22.9729C22.9729 13.1838 22.9729 13.1838 22.9729 13.1838C22.9729 13.1838 22.9729 13.1838 22.9729 13.1838C22.9729 13.1838 22.9729 13.1838 22.9729 13.1838C22.9729 13.1838 22.9729 13.1838 22.9729 13.1838H22.9729C22.9729 13.1838 22.9729 13.1838 22.9729 13.1838H22.9729C22.9729 13.1838 22.9729 13.1838 22.9729 13.1838C22.9729 13.1838 22.9729 13.1838 22.9729 13.1838C22.9729 13.1838 22.9729 13.1838 22.9729 13.1838C22.9729 13.1838 22.9729 13.1838 22.9729 13.1838H22.9729C22.9729 13.1838 22.9729 13.1838 22.9729 13.1838H22.9729C22.9729 13.1838 22.9729 13.1838 22.9729 13.1838H22.9729C22.9729 13.1838 22.9729 13.1838 22.9729 13.1838C22.9729 13.1838 22.9729 13.1838 22.9729 13.1838H22.9729C22.9729 13.1838 22.9729 13.1838 22.9729 13.1838H22.9729C22.9729 13.1838 22.9729 13.1838 22.9729 13.1838H22.9729C22.9729 13.1838 22.9729 13.1838 22.9729 13.1838C22.9729 13.1838 22.9729 13.1838 22.9729 13.1838C22.9729 13.1838 22.9729 13.1838 22.9729 13.1838C22.9729 13.1838 22.9729 13.1838 22.9729 13.1838H22.9729C22.9729 13.1838 22.9729 13.1838 22.9729 13.1838H22.9729C22.9729 13.1838 22.9729 13.1838 22.9729 13.1838H22.9729C22.9729 13.1838 22.9729 13.1838 22.9729 13.1838C22.9729 13.1838 22.9729 13.1838 22.9729 13.1838H22.9729C22.9729 13.1838 22.9729 13.1838 22.9729 13.1838H22.9729C22.9729 13.1838 22.9729 13.1838 22.9729 13.1838H22.9728C22.9728 13.1838 22.9728 13.1838 22.9728 13.1838C22.9728 13.1838 22.9728 13.1838 22.9728 13.1838C22.9728 13.1838 22.9728 13.1838 22.9728 13.1838C22.9728 13.1838 22.9728 13.1838 22.9728 13.1838H22.9728C22.9728 13.1838 22.9728 13.1838 22.9728 13.1838H22.9728C22.9728 13.1838 22.9728 13.1838 22.9728 13.1838C22.9728 13.1838 22.9728 13.1838 22.9728 13.1838C22.9728 13.1838 22.9728 13.1838 22.9728 13.1838C22.9728 13.1838 22.9728 13.1838 22.9728 13.1838H22.9728C22.9728 13.1838 22.9728 13.1838 22.9728 13.1838H22.9728C22.9728 13.1838 22.9728 13.1838 22.9728 13.1838H22.9728C22.9728 13.1838 22.9728 13.1838 22.9728 13.1838C22.9728 13.1838 22.9728 13.1838 22.9728 13.1838C22.9728 13.1838 22.9728 13.1838 22.9728 13.1838C22.9728 13.1838 22.9728 13.1838 22.9728 13.1838H22.9728C22.9728 13.1838 22.9728 13.1838 22.9728 13.1838H22.9728C22.9728 13.1838 22.9728 13.1838 22.9728 13.1838C22.9728 13.1838 22.9728 13.1838 22.9728 13.1838V15.1838ZM20.1371 12.0826C20.1371 13.6642 21.2841 15.1838 22.9728 15.1838V13.1838C22.6338 13.1838 22.1371 12.8219 22.1371 12.0826H20.1371ZM22.9728 8.98139C21.2841 8.98139 20.1371 10.501 20.1371 12.0826H22.1371C22.1371 11.3433 22.6338 10.9814 22.9728 10.9814V8.98139ZM22.9729 8.98139C22.9729 8.98139 22.9729 8.98139 22.9729 8.98139C22.9729 8.98139 22.9729 8.98139 22.9729 8.98139H22.9729C22.9729 8.98139 22.9729 8.98139 22.9729 8.98139H22.9729C22.9729 8.98139 22.9729 8.98139 22.9729 8.98139C22.9729 8.98139 22.9729 8.98139 22.9729 8.98139C22.9729 8.98139 22.9729 8.98139 22.9729 8.98139C22.9729 8.98139 22.9729 8.98139 22.9729 8.98139H22.9729C22.9729 8.98139 22.9729 8.98139 22.9729 8.98139H22.9729C22.9729 8.98139 22.9729 8.98139 22.9729 8.98139H22.9729C22.9729 8.98139 22.9729 8.98139 22.9729 8.98139C22.9729 8.98139 22.9729 8.98139 22.9729 8.98139C22.9729 8.98139 22.9729 8.98139 22.9729 8.98139C22.9729 8.98139 22.9729 8.98139 22.9729 8.98139H22.9729C22.9729 8.98139 22.9729 8.98139 22.9729 8.98139H22.9729C22.9729 8.98139 22.9729 8.98139 22.9729 8.98139C22.9729 8.98139 22.9729 8.98139 22.9729 8.98139C22.9729 8.98139 22.9729 8.98139 22.9729 8.98139C22.9729 8.98139 22.9729 8.98139 22.9729 8.98139H22.9729C22.9729 8.98139 22.9729 8.98139 22.9729 8.98139H22.9729C22.9729 8.98139 22.9729 8.98139 22.9729 8.98139H22.9729C22.9729 8.98139 22.9729 8.98139 22.9729 8.98139C22.9729 8.98139 22.9729 8.98139 22.9729 8.98139H22.9729C22.9729 8.98139 22.9729 8.98139 22.9729 8.98139H22.9729C22.9729 8.98139 22.9729 8.98139 22.9729 8.98139H22.9729C22.9729 8.98139 22.9729 8.98139 22.9729 8.98139C22.9729 8.98139 22.9729 8.98139 22.9729 8.98139C22.9729 8.98139 22.9729 8.98139 22.9729 8.98139C22.9729 8.98139 22.9729 8.98139 22.9729 8.98139H22.9729C22.9729 8.98139 22.9729 8.98139 22.9729 8.98139H22.9729C22.9729 8.98139 22.9729 8.98139 22.9729 8.98139H22.9729C22.9729 8.98139 22.9729 8.98139 22.9729 8.98139C22.9729 8.98139 22.9729 8.98139 22.9729 8.98139H22.9729C22.9729 8.98139 22.9729 8.98139 22.9729 8.98139H22.9729C22.9729 8.98139 22.9729 8.98139 22.9729 8.98139H22.9728C22.9728 8.98139 22.9728 8.98139 22.9728 8.98139C22.9728 8.98139 22.9728 8.98139 22.9728 8.98139C22.9728 8.98139 22.9728 8.98139 22.9728 8.98139C22.9728 8.98139 22.9728 8.98139 22.9728 8.98139H22.9728C22.9728 8.98139 22.9728 8.98139 22.9728 8.98139H22.9728C22.9728 8.98139 22.9728 8.98139 22.9728 8.98139C22.9728 8.98139 22.9728 8.98139 22.9728 8.98139C22.9728 8.98139 22.9728 8.98139 22.9728 8.98139C22.9728 8.98139 22.9728 8.98139 22.9728 8.98139H22.9728C22.9728 8.98139 22.9728 8.98139 22.9728 8.98139H22.9728C22.9728 8.98139 22.9728 8.98139 22.9728 8.98139H22.9728C22.9728 8.98139 22.9728 8.98139 22.9728 8.98139C22.9728 8.98139 22.9728 8.98139 22.9728 8.98139C22.9728 8.98139 22.9728 8.98139 22.9728 8.98139C22.9728 8.98139 22.9728 8.98139 22.9728 8.98139H22.9728C22.9728 8.98139 22.9728 8.98139 22.9728 8.98139H22.9728C22.9728 8.98139 22.9728 8.98139 22.9728 8.98139C22.9728 8.98139 22.9728 8.98139 22.9728 8.98139V10.9814C22.9728 10.9814 22.9728 10.9814 22.9728 10.9814C22.9728 10.9814 22.9728 10.9814 22.9728 10.9814H22.9728C22.9728 10.9814 22.9728 10.9814 22.9728 10.9814H22.9728C22.9728 10.9814 22.9728 10.9814 22.9728 10.9814C22.9728 10.9814 22.9728 10.9814 22.9728 10.9814C22.9728 10.9814 22.9728 10.9814 22.9728 10.9814C22.9728 10.9814 22.9728 10.9814 22.9728 10.9814H22.9728C22.9728 10.9814 22.9728 10.9814 22.9728 10.9814H22.9728C22.9728 10.9814 22.9728 10.9814 22.9728 10.9814H22.9728C22.9728 10.9814 22.9728 10.9814 22.9728 10.9814C22.9728 10.9814 22.9728 10.9814 22.9728 10.9814C22.9728 10.9814 22.9728 10.9814 22.9728 10.9814C22.9728 10.9814 22.9728 10.9814 22.9728 10.9814H22.9728C22.9728 10.9814 22.9728 10.9814 22.9728 10.9814H22.9728C22.9728 10.9814 22.9728 10.9814 22.9728 10.9814C22.9728 10.9814 22.9728 10.9814 22.9728 10.9814C22.9728 10.9814 22.9728 10.9814 22.9728 10.9814C22.9728 10.9814 22.9728 10.9814 22.9728 10.9814H22.9729C22.9729 10.9814 22.9729 10.9814 22.9729 10.9814H22.9729C22.9729 10.9814 22.9729 10.9814 22.9729 10.9814H22.9729C22.9729 10.9814 22.9729 10.9814 22.9729 10.9814C22.9729 10.9814 22.9729 10.9814 22.9729 10.9814H22.9729C22.9729 10.9814 22.9729 10.9814 22.9729 10.9814H22.9729C22.9729 10.9814 22.9729 10.9814 22.9729 10.9814H22.9729C22.9729 10.9814 22.9729 10.9814 22.9729 10.9814C22.9729 10.9814 22.9729 10.9814 22.9729 10.9814C22.9729 10.9814 22.9729 10.9814 22.9729 10.9814C22.9729 10.9814 22.9729 10.9814 22.9729 10.9814H22.9729C22.9729 10.9814 22.9729 10.9814 22.9729 10.9814H22.9729C22.9729 10.9814 22.9729 10.9814 22.9729 10.9814H22.9729C22.9729 10.9814 22.9729 10.9814 22.9729 10.9814C22.9729 10.9814 22.9729 10.9814 22.9729 10.9814H22.9729C22.9729 10.9814 22.9729 10.9814 22.9729 10.9814H22.9729C22.9729 10.9814 22.9729 10.9814 22.9729 10.9814H22.9729C22.9729 10.9814 22.9729 10.9814 22.9729 10.9814C22.9729 10.9814 22.9729 10.9814 22.9729 10.9814C22.9729 10.9814 22.9729 10.9814 22.9729 10.9814C22.9729 10.9814 22.9729 10.9814 22.9729 10.9814H22.9729C22.9729 10.9814 22.9729 10.9814 22.9729 10.9814H22.9729C22.9729 10.9814 22.9729 10.9814 22.9729 10.9814C22.9729 10.9814 22.9729 10.9814 22.9729 10.9814C22.9729 10.9814 22.9729 10.9814 22.9729 10.9814C22.9729 10.9814 22.9729 10.9814 22.9729 10.9814H22.9729C22.9729 10.9814 22.9729 10.9814 22.9729 10.9814H22.9729C22.9729 10.9814 22.9729 10.9814 22.9729 10.9814H22.9729C22.9729 10.9814 22.9729 10.9814 22.9729 10.9814C22.9729 10.9814 22.9729 10.9814 22.9729 10.9814C22.9729 10.9814 22.9729 10.9814 22.9729 10.9814C22.9729 10.9814 22.9729 10.9814 22.9729 10.9814H22.9729C22.9729 10.9814 22.9729 10.9814 22.9729 10.9814H22.9729C22.9729 10.9814 22.9729 10.9814 22.9729 10.9814C22.9729 10.9814 22.9729 10.9814 22.9729 10.9814V8.98139ZM21.9729 5.60127V9.98139H23.9729V5.60127H21.9729ZM21.7491 5.37744C21.8727 5.37744 21.9729 5.47765 21.9729 5.60127H23.9729C23.9729 4.37308 22.9773 3.37744 21.7491 3.37744V5.37744ZM2.16786 5.37744H21.7491V3.37744H2.16786V5.37744Z" fill="#7E7E7E" mask="url(#path-3-inside-2_509_12712)"/>
</svg>
