<svg width="26" height="26" viewBox="0 0 26 26" fill="none" xmlns="http://www.w3.org/2000/svg">
<g id="Group">
<path id="Vector" d="M3.87492 4H22.6249C22.9012 4 23.1661 4.10975 23.3615 4.3051C23.5568 4.50045 23.6666 4.7654 23.6666 5.04167V21.7083C23.6666 21.9846 23.5568 22.2496 23.3615 22.4449C23.1661 22.6403 22.9012 22.75 22.6249 22.75H3.87492C3.59865 22.75 3.3337 22.6403 3.13835 22.4449C2.943 22.2496 2.83325 21.9846 2.83325 21.7083V5.04167C2.83325 4.7654 2.943 4.50045 3.13835 4.3051C3.3337 4.10975 3.59865 4 3.87492 4ZM21.5833 8.41458L13.3249 15.8104L4.91659 8.39167V20.6667H21.5833V8.41458ZM5.44888 6.08333L13.3135 13.0229L21.0645 6.08333H5.44888Z" fill="#0E111F"/>
</g>
</svg>
