<svg width="24" height="25" viewBox="0 0 24 25" fill="none" xmlns="http://www.w3.org/2000/svg">
<g clip-path="url(#clip0_529_17411)">
<path d="M15 2.69532C15.7023 2.69524 16.3922 2.88005 17.0004 3.23118C17.6086 3.58231 18.1137 4.08739 18.4647 4.69561C18.8158 5.30384 19.0006 5.99378 19.0005 6.69607C19.0003 7.39835 18.8153 8.08822 18.464 8.69632L23 8.69532V10.6953H21V20.6953C21 20.9605 20.8946 21.2149 20.7071 21.4024C20.5196 21.59 20.2652 21.6953 20 21.6953H4C3.73478 21.6953 3.48043 21.59 3.29289 21.4024C3.10536 21.2149 3 20.9605 3 20.6953V10.6953H1V8.69532L5.536 8.69632C5.03986 7.83721 4.88069 6.82438 5.08938 5.85449C5.29808 4.88461 5.85975 4.02689 6.66533 3.44787C7.47092 2.86886 8.46293 2.60987 9.44875 2.7212C10.4346 2.83253 11.3438 3.30623 12 4.05032C12.3746 3.6237 12.8361 3.28209 13.3535 3.0484C13.8709 2.8147 14.4323 2.69432 15 2.69532ZM13 10.6953H11V20.6953H13V10.6953ZM9 4.69532C8.48102 4.693 7.98145 4.89251 7.60685 5.2517C7.23224 5.61089 7.01193 6.10163 6.99246 6.62026C6.97299 7.13888 7.15588 7.64476 7.50249 8.03104C7.84911 8.41731 8.3323 8.65372 8.85 8.69032L9 8.69532H11V6.69532C11 6.21738 10.8289 5.75523 10.5176 5.39258C10.2063 5.02992 9.77542 4.79073 9.303 4.71832L9.149 4.70032L9 4.69532ZM15 4.69532C14.4954 4.69516 14.0094 4.88573 13.6395 5.22882C13.2695 5.57191 13.0428 6.04216 13.005 6.54532L13 6.69532V8.69532H15C15.5046 8.69548 15.9906 8.50491 16.3605 8.16182C16.7305 7.81873 16.9572 7.34847 16.995 6.84532L17 6.69532C17 6.16489 16.7893 5.65618 16.4142 5.28111C16.0391 4.90603 15.5304 4.69532 15 4.69532Z" fill="#EF3125"/>
</g>
<defs>
<clipPath id="clip0_529_17411">
<rect width="24" height="24" fill="white" transform="translate(0 0.695312)"/>
</clipPath>
</defs>
</svg>
