<svg width="29" height="28" viewBox="0 0 29 28" fill="none" xmlns="http://www.w3.org/2000/svg">
<circle cx="14.6892" cy="14.189" r="13.3424" fill="#FEE100"/>
<path d="M19.1353 19.7245C18.416 19.7245 17.833 19.1414 17.833 18.4222V13.1268L15.7257 17.2931C15.5278 17.6842 15.1268 17.9308 14.6884 17.9308C14.2501 17.9308 13.849 17.6842 13.6512 17.2931L11.5439 13.1268V18.4222C11.5439 19.1414 10.9608 19.7245 10.2416 19.7245C9.52238 19.7245 8.93933 19.1414 8.93933 18.4222V10.4005C8.93933 9.43394 9.72288 8.65039 10.6894 8.65039C11.3498 8.65039 11.954 9.02211 12.2516 9.61159L14.6884 14.437L17.1425 9.60369C17.4394 9.01884 18.0397 8.65039 18.6956 8.65039C19.6577 8.65039 20.4375 9.43026 20.4375 10.3923V18.4222C20.4375 19.1414 19.8545 19.7245 19.1353 19.7245Z" fill="#EF3125"/>
<circle cx="14.5" cy="14" r="14" transform="rotate(180 14.5 14)" fill="#DDDDDD"/>
<ellipse cx="14.4637" cy="14.1587" rx="9.73587" ry="9.73587" transform="rotate(180 14.4637 14.1587)" fill="#B5B5B5"/>
<path d="M11.762 8.80488L14.4371 15.3395H14.5435L17.2186 8.80488H19.694V18.4404H17.7509V12.1321H17.6711L15.1557 18.4005H13.8249L11.3095 12.1055H11.2296V18.4404H9.28657V8.80488H11.762Z" fill="#DDDDDD"/>
</svg>
