<svg width="85" height="99" viewBox="0 0 85 99" fill="none" xmlns="http://www.w3.org/2000/svg">
<g clip-path="url(#clip0_844_7533)">
<path d="M79.6698 92.8193C80.1843 92.8193 80.6013 93.2363 80.6013 93.7508C80.6013 94.2653 80.1843 94.6823 79.6698 94.6823H74.6704C74.3805 94.6823 74.1455 94.4473 74.1455 94.1574V86.0216C74.1455 85.7317 74.3805 85.4967 74.6704 85.4967H79.5534C80.0678 85.4967 80.4849 85.9137 80.4849 86.4282C80.4849 86.9426 80.0678 87.3597 79.5534 87.3597H76.2673V89.145H79.0294C79.5046 89.145 79.8898 89.5302 79.8898 90.0054C79.8898 90.4805 79.5046 90.8657 79.0294 90.8657H76.2673V92.8193H79.6698Z" fill="black"/>
<path d="M71.3191 94.6823C70.7332 94.6823 70.2582 94.2073 70.2582 93.6214V89.2097L68.5378 92.6731C68.3791 92.9925 68.0532 93.1945 67.6966 93.1945C67.3399 93.1945 67.014 92.9925 66.8554 92.6731L65.1349 89.2097V93.6214C65.1349 94.2073 64.66 94.6823 64.0741 94.6823C63.4882 94.6823 63.0132 94.2073 63.0132 93.6214V86.8089C63.0132 86.0842 63.6007 85.4967 64.3254 85.4967H64.5021C65.0007 85.4967 65.4562 85.7792 65.6777 86.2259L67.6966 90.2965L69.7277 86.2233C69.9497 85.7781 70.4044 85.4967 70.902 85.4967H71.0677C71.7924 85.4967 72.3799 86.0842 72.3799 86.8089V93.6214C72.3799 94.2073 71.905 94.6823 71.3191 94.6823Z" fill="black"/>
<path d="M60.1952 94.6823C59.6092 94.6823 59.1343 94.2073 59.1343 93.6214V86.5575C59.1343 85.9716 59.6092 85.4967 60.1952 85.4967C60.7811 85.4967 61.256 85.9716 61.256 86.5575V90.0895V93.6214C61.256 94.2073 60.7811 94.6823 60.1952 94.6823Z" fill="black"/>
<path d="M58.0977 86.4282C58.0977 86.9426 57.6807 87.3597 57.1662 87.3597H55.3032V93.6214C55.3032 94.2073 54.8282 94.6823 54.2423 94.6823C53.6564 94.6823 53.1815 94.2073 53.1815 93.6214V87.3597H51.3055C50.7911 87.3597 50.374 86.9426 50.374 86.4282C50.374 85.9137 50.7911 85.4967 51.3055 85.4967H57.1662C57.6807 85.4967 58.0977 85.9137 58.0977 86.4282Z" fill="black"/>
<path d="M43.3158 85.4967C43.6998 85.4967 44.0502 85.7157 44.2185 86.061L45.9229 89.559L47.6511 86.0581C47.8208 85.7143 48.171 85.4967 48.5544 85.4967C49.3174 85.4967 49.8034 86.3119 49.4405 86.9831L46.9709 91.5514V93.6279C46.9709 94.2102 46.4988 94.6823 45.9165 94.6823C45.3341 94.6823 44.8621 94.2102 44.8621 93.6279V91.5255L42.4301 86.9741C42.0726 86.3052 42.5573 85.4967 43.3158 85.4967Z" fill="black"/>
<path d="M40.2997 92.8193C40.8142 92.8193 41.2312 93.2363 41.2312 93.7508C41.2312 94.2653 40.8142 94.6823 40.2997 94.6823H35.3003C35.0104 94.6823 34.7754 94.4473 34.7754 94.1574V86.0216C34.7754 85.7317 35.0104 85.4967 35.3003 85.4967H40.1833C40.6977 85.4967 41.1148 85.9137 41.1148 86.4282C41.1148 86.9426 40.6977 87.3597 40.1833 87.3597H36.8971V89.145H39.6593C40.1345 89.145 40.5196 89.5302 40.5196 90.0054C40.5196 90.4805 40.1345 90.8657 39.6593 90.8657H36.8971V92.8193H40.2997Z" fill="black"/>
<path d="M27.0802 89.4297V93.6214C27.0802 94.2073 26.6053 94.6823 26.0194 94.6823C25.4335 94.6823 24.9585 94.2073 24.9585 93.6214V86.6289C24.9585 86.0036 25.4654 85.4967 26.0907 85.4967C26.4378 85.4967 26.7657 85.6559 26.9804 85.9286L30.8968 90.9045V86.5575C30.8968 85.9716 31.3718 85.4967 31.9577 85.4967C32.5436 85.4967 33.0186 85.9716 33.0186 86.5575V93.5113C33.0186 94.158 32.4943 94.6823 31.8475 94.6823C31.4919 94.6823 31.1556 94.5207 30.9334 94.2431L27.0802 89.4297Z" fill="black"/>
<path d="M19.1526 94.7598C18.4626 94.7598 17.8373 94.6305 17.2767 94.3717C16.7247 94.1043 16.246 93.7507 15.8406 93.3108C15.4439 92.8623 15.1377 92.3621 14.9221 91.8101C14.7064 91.2495 14.5986 90.6716 14.5986 90.0765C14.5986 89.4641 14.7108 88.8819 14.935 88.3299C15.1679 87.7779 15.487 87.2863 15.8924 86.855C16.3064 86.4151 16.7937 86.0701 17.3543 85.82C17.915 85.5699 18.5273 85.4448 19.1915 85.4448C19.8728 85.4448 20.4895 85.5785 21.0415 85.8459C21.6021 86.1046 22.0808 86.4583 22.4776 86.9068C22.883 87.3553 23.1935 87.8598 23.4091 88.4205C23.6247 88.9725 23.7325 89.5374 23.7325 90.1153C23.7325 90.7277 23.6204 91.3098 23.3961 91.8618C23.1719 92.4138 22.8528 92.9098 22.4388 93.3497C22.0248 93.7809 21.5375 94.1259 20.9768 94.3847C20.4248 94.6348 19.8168 94.7598 19.1526 94.7598ZM16.7592 90.1023C16.7592 90.456 16.8109 90.801 16.9144 91.1373C17.018 91.4651 17.1689 91.7583 17.3673 92.0171C17.5743 92.2758 17.8287 92.4828 18.1306 92.6381C18.4325 92.7933 18.7775 92.871 19.1656 92.871C19.571 92.871 19.9246 92.7933 20.2265 92.6381C20.5283 92.4742 20.7785 92.2586 20.9768 91.9912C21.1752 91.7238 21.3218 91.4263 21.4167 91.0985C21.5202 90.7622 21.572 90.4215 21.572 90.0765C21.572 89.7228 21.5202 89.3822 21.4167 89.0544C21.3132 88.7266 21.158 88.4334 20.951 88.1746C20.744 87.9073 20.4895 87.7003 20.1876 87.5536C19.8858 87.407 19.5451 87.3337 19.1656 87.3337C18.7602 87.3337 18.4066 87.4113 18.1047 87.5666C17.8115 87.7218 17.5613 87.9331 17.3543 88.2005C17.156 88.4593 17.005 88.7568 16.9015 89.0932C16.8066 89.421 16.7592 89.7573 16.7592 90.1023Z" fill="black"/>
<path d="M12.3059 94.6823C11.72 94.6823 11.245 94.2073 11.245 93.6214V89.2097L9.52458 92.6731C9.36591 92.9925 9.04003 93.1945 8.68338 93.1945C8.32673 93.1945 8.00085 92.9925 7.84219 92.6731L6.12175 89.2097V93.6214C6.12175 94.2073 5.64678 94.6823 5.06088 94.6823C4.47497 94.6823 4 94.2073 4 93.6214V86.8089C4 86.0842 4.58752 85.4967 5.31225 85.4967H5.48892C5.9875 85.4967 6.44301 85.7792 6.66453 86.2259L8.68338 90.2965L10.7145 86.2233C10.9365 85.7781 11.3913 85.4967 11.8888 85.4967H12.0545C12.7792 85.4967 13.3668 86.0842 13.3668 86.8089V93.6214C13.3668 94.2073 12.8918 94.6823 12.3059 94.6823Z" fill="black"/>
<circle cx="39.8038" cy="39.2709" r="33.2716" fill="#FFF293"/>
<path d="M28.4423 -0.145327H28.5025V-0.127132H28.4423V-0.145327ZM28.4423 -0.0804576H28.5025V-0.0622626H28.4423V-0.0804576ZM28.4268 -0.214415H28.4487V0.0197466H28.4268V-0.214415Z" fill="black"/>
<path fill-rule="evenodd" clip-rule="evenodd" d="M21.8754 13.961C22.83 12.8269 21.7211 11.2975 20.514 12.1579C17.4773 14.3223 14.8196 16.9841 12.66 20.0244C12.064 20.8634 12.6878 21.9851 13.717 21.9865C14.3339 21.9874 14.9607 21.9887 15.5972 21.9906C16.0851 21.992 16.5327 21.7233 16.7709 21.2975C18.3161 18.536 20.0796 16.1013 21.8235 14.0227C21.8408 14.0021 21.8581 13.9815 21.8754 13.961ZM11.397 23.282C10.9163 23.2823 10.4722 23.5434 10.2509 23.97C8.15132 28.0171 6.8587 32.55 6.58605 37.3559C6.54432 38.0914 7.14038 38.6958 7.87704 38.6961C8.87372 38.6966 9.90402 38.697 10.9673 38.6975C11.5054 38.6977 11.9414 38.2636 11.9633 37.7259C12.1505 33.1199 13.2561 28.928 14.8465 25.204C15.2291 24.308 14.5911 23.2841 13.6169 23.2829C12.862 23.2819 12.122 23.2816 11.397 23.282ZM7.88697 39.9926C7.14757 39.9923 6.54985 40.6004 6.59511 41.3384C6.87479 45.8993 8.07331 50.2117 10.0079 54.093C10.2262 54.5309 10.6775 54.8002 11.1668 54.7998C12.1196 54.7991 13.0985 54.7995 14.1032 54.8013C15.1211 54.803 15.7652 53.6965 15.311 52.7856C13.6137 49.3819 12.3704 45.5248 12.0313 41.2638C11.975 40.5566 11.3961 39.9941 10.6867 39.9938C9.72602 39.9934 8.79262 39.993 7.88697 39.9926ZM13.3951 56.0968C12.3763 56.0956 11.7517 57.1982 12.3271 58.039C18.3203 66.7959 28.3909 72.542 39.8035 72.542C50.9413 72.542 60.8008 67.0694 66.8398 58.6664C67.442 57.8285 66.8194 56.7012 65.7875 56.6993C64.8362 56.6976 63.862 56.6947 62.8654 56.6905C62.4192 56.6886 62.0034 56.9131 61.7519 57.2816C60.7056 58.8147 59.5946 60.2205 58.4812 61.4921C56.0468 64.2724 53.5886 66.4259 51.7387 67.8849C50.8133 68.6148 50.0387 69.1719 49.4937 69.5477C49.2212 69.7356 49.0059 69.8782 48.8578 69.9745C48.7837 70.0227 48.7263 70.0593 48.687 70.0841L48.6416 70.1127L48.6294 70.1203L48.6259 70.1225L48.6248 70.1231C48.6244 70.1233 48.6242 70.1235 48.2843 69.5715C47.9445 69.0194 47.9444 69.0195 47.9443 69.0195L47.9446 69.0194L47.9465 69.0182L47.9555 69.0126L47.9942 68.9883C48.029 68.9663 48.0818 68.9326 48.1512 68.8875C48.29 68.7973 48.4954 68.6612 48.7578 68.4803C49.2826 68.1184 50.0345 67.5778 50.9358 66.8669C52.7394 65.4444 55.1358 63.3448 57.5058 60.638C58.0485 60.0182 58.5892 59.3672 59.1207 58.686C59.7717 57.8516 59.1621 56.6699 58.1038 56.6616C56.2834 56.6472 54.3994 56.6285 52.454 56.6049C51.9246 56.5985 51.4441 56.9098 51.222 57.3904C50.5514 58.8411 49.8398 60.1776 49.1237 61.3939C47.4857 64.1761 45.8217 66.3337 44.5648 67.7981C43.9361 68.5305 43.4088 69.0902 43.0366 69.4685C42.8506 69.6577 42.7032 69.8016 42.6014 69.8992C42.5505 69.9479 42.5109 69.9851 42.4835 70.0106L42.4518 70.04L42.4429 70.0481L42.4403 70.0505L42.4395 70.0513C42.4392 70.0515 42.4389 70.0518 42.0036 69.5715C41.5682 69.0912 41.568 69.0913 41.5679 69.0914L41.568 69.0913L41.569 69.0904L41.5747 69.0853L41.6 69.0618C41.6095 69.0529 41.6212 69.042 41.6348 69.0292C41.6541 69.011 41.6774 68.9889 41.7046 68.9629C41.7975 68.8738 41.9357 68.739 42.1123 68.5594C42.4657 68.2001 42.973 67.662 43.5809 66.9537C44.7971 65.5367 46.4139 63.4411 48.0065 60.7362C48.4405 59.999 48.8725 59.2168 49.2941 58.3911C49.7265 57.5443 49.1045 56.5605 48.1538 56.546C46.1124 56.5149 44.0108 56.4784 41.8511 56.4358C41.1124 56.4213 40.5053 57.0158 40.5053 57.7547L40.5053 60.9586L40.5054 67.3481L40.5054 69.0068L40.5054 69.4292V69.5358V69.5625L40.5054 69.5692V69.5709V69.5713C40.5054 69.5714 40.5054 69.5715 39.8572 69.5715C39.2089 69.5715 39.2089 69.5714 39.2089 69.5713V69.5709V69.5692V69.5625V69.5358V69.4292L39.2089 69.0069L39.2089 67.3481L39.2088 60.9586L39.2088 57.6736C39.2088 56.9559 38.6348 56.37 37.9172 56.356C35.6929 56.3126 33.5306 56.2756 31.4329 56.2443C30.4719 56.23 29.8236 57.2155 30.2538 58.075C30.7257 59.0178 31.2122 59.9055 31.7013 60.7362C33.2938 63.4411 34.9106 65.5367 36.1268 66.9537C36.7347 67.662 37.242 68.2001 37.5954 68.5594C37.7721 68.739 37.9102 68.8738 38.0031 68.9629C38.0496 69.0074 38.0847 69.0404 38.1078 69.0618L38.1331 69.0853L38.1387 69.0904L38.1397 69.0913L38.1398 69.0914C38.1397 69.0913 38.1395 69.0912 37.7042 69.5715C37.2688 70.0518 37.2685 70.0515 37.2682 70.0513L37.2674 70.0505L37.2648 70.0481L37.256 70.04L37.2242 70.0106C37.1968 69.9851 37.1573 69.9479 37.1063 69.8992C37.0045 69.8016 36.8572 69.6577 36.6711 69.4685C36.2989 69.0902 35.7716 68.5305 35.143 67.7981C33.8861 66.3337 32.222 64.1761 30.584 61.3939C29.8014 60.0647 29.0242 58.5919 28.3001 56.9833C28.0858 56.5073 27.6182 56.1926 27.0962 56.1864C25.0651 56.1625 23.102 56.144 21.2093 56.1301C20.1544 56.1224 19.5305 57.2897 20.1658 58.1318C20.8328 59.0161 21.5177 59.8521 22.2059 60.638C24.5759 63.3448 26.9723 65.4444 28.7759 66.8669C29.6772 67.5778 30.4291 68.1184 30.9539 68.4803C31.2162 68.6612 31.4217 68.7973 31.5605 68.8875L31.6354 68.9359C31.6691 68.9576 31.6965 68.975 31.7175 68.9883L31.7562 69.0126L31.7652 69.0182L31.7671 69.0194C31.7673 69.0195 31.7673 69.0197 31.7672 69.0198L31.7538 69.0414L31.6784 69.1638L31.4274 69.5715C31.0875 70.1235 31.0873 70.1233 31.0869 70.1231L31.0858 70.1225L31.0823 70.1203L31.0701 70.1127L31.0247 70.0841C30.9853 70.0593 30.928 70.0227 30.8539 69.9745C30.7058 69.8782 30.4905 69.7356 30.218 69.5477C29.6729 69.1719 28.8984 68.6148 27.973 67.8849C26.1231 66.4259 23.6649 64.2724 21.2305 61.4921C19.981 60.0651 18.7346 58.4691 17.5792 56.7139C17.3317 56.338 16.915 56.1057 16.4649 56.1041C15.4159 56.1003 14.3925 56.0979 13.3951 56.0968ZM68.1333 55.4049C68.6118 55.4049 69.0543 55.1463 69.2768 54.7227C71.4005 50.6803 72.7169 46.1476 73.0119 41.3386C73.0571 40.6006 72.4594 39.9924 71.72 39.9928C70.8476 39.9932 69.9492 39.9936 69.025 39.994C68.3156 39.9943 67.7367 40.5566 67.6804 41.2639C67.3218 45.7702 65.9517 49.8248 64.1031 53.369C63.6296 54.2768 64.2647 55.3995 65.2885 55.4018C66.2603 55.404 67.2087 55.405 68.1333 55.4049ZM71.73 38.6963C72.4666 38.6959 73.0627 38.0916 73.021 37.3561C72.7624 32.7979 71.5863 28.4852 69.6744 24.5998C69.4574 24.1588 69.0045 23.8869 68.513 23.8871C67.8083 23.8874 67.0895 23.8871 66.3569 23.8861C65.3885 23.8847 64.7443 24.8938 65.11 25.7906C66.5684 29.3664 67.5709 33.3601 67.7484 37.7259C67.7703 38.2637 68.2063 38.6978 68.7445 38.6976C69.7711 38.6971 70.7664 38.6967 71.73 38.6963ZM66.3098 22.5895C67.3259 22.591 67.9515 21.4939 67.3823 20.6523C65.1803 17.3969 62.4171 14.5522 59.2316 12.2572C58.0473 11.4039 56.95 12.9046 57.8881 14.0227C59.7525 16.2448 61.6392 18.874 63.2577 21.8743C63.4913 22.3073 63.94 22.5839 64.432 22.5854C65.0677 22.5873 65.6937 22.5886 66.3098 22.5895ZM49.2563 7.45549C49.1264 7.35437 48.9782 7.27941 48.8197 7.23489C47.604 6.89344 46.3602 6.61934 45.0924 6.41684C44.3689 6.30127 43.9129 7.15243 44.3604 7.73264C45.4886 9.19541 46.9974 11.3495 48.5306 14.126C49.7113 16.2642 50.9073 18.7733 51.9551 21.6213C52.1467 22.1422 52.6366 22.4965 53.1915 22.5029C55.5363 22.5301 57.7899 22.5502 59.9485 22.5642C60.9479 22.5707 61.5832 21.5078 61.065 20.6532C59.7571 18.4961 58.323 16.5581 56.8949 14.8561C54.6216 12.1465 52.3724 10.0457 50.6926 8.62324C50.1471 8.1613 49.6621 7.77126 49.2563 7.45549ZM41.5381 6.38418C41.6599 6.51342 41.5857 6.04524 41.4083 6.03681C41.1284 6.02352 40.8476 6.01369 40.5659 6.00736C40.5327 6.00661 40.5054 6.03334 40.5054 6.06656L40.5054 6.46435L40.5054 8.03541L40.5052 14.1588L40.5051 21.0062C40.5051 21.7238 41.079 22.3097 41.7965 22.3238C44.2701 22.3727 46.6676 22.4137 48.9856 22.4477C49.9054 22.4612 50.5534 21.5515 50.2119 20.6974C49.3244 18.4777 48.355 16.4902 47.3956 14.7528C45.8989 12.0422 44.4279 9.94311 43.3338 8.52443C42.7868 7.81522 42.3343 7.27648 42.0203 6.91683C41.8633 6.73703 41.741 6.60203 41.6588 6.51292C41.6177 6.46836 41.5867 6.43528 41.5664 6.41382L41.544 6.39035L41.5391 6.38518L41.5382 6.38424L41.5381 6.38418ZM39.2089 6.06651C39.2089 6.03216 39.1808 6.00448 39.1464 6.00515C38.864 6.01062 38.5825 6.01961 38.3018 6.03208C38.1217 6.04008 38.0463 6.51575 38.1696 6.38418L38.1696 6.38424L38.1687 6.38518L38.1637 6.39035L38.1413 6.41382C38.121 6.43528 38.09 6.46836 38.0489 6.51292C37.9667 6.60203 37.8444 6.73703 37.6874 6.91683C37.3734 7.27648 36.9209 7.81522 36.3739 8.52443C35.2798 9.94311 33.8088 12.0422 32.3121 14.7528C31.4013 16.4023 30.4814 18.2771 29.6312 20.362C29.2878 21.2041 29.9115 22.1113 30.8208 22.1245C33.0925 22.1574 35.4411 22.1969 37.8632 22.244C38.6018 22.2584 39.2086 21.6639 39.2086 20.9252L39.2087 14.1587L39.2089 8.03537L39.2089 6.46431L39.2089 6.06651ZM35.3473 7.73264C35.799 7.14694 35.3405 6.28723 34.6098 6.40178C33.368 6.59643 32.149 6.85976 30.9569 7.18776C30.7968 7.23181 30.647 7.30687 30.5158 7.40859C30.0981 7.73236 29.5919 8.13816 29.0191 8.62324C27.3393 10.0457 25.0901 12.1465 22.8168 14.8561C21.5165 16.4058 20.2113 18.151 19.0009 20.0792C18.4675 20.9289 19.0921 22.0052 20.0953 22.0117C22.1903 22.0253 24.3747 22.0445 26.645 22.0704C27.2079 22.0769 27.7115 21.725 27.9103 21.1984C28.9194 18.5243 30.0552 16.1578 31.1771 14.126C32.7103 11.3495 34.2192 9.19541 35.3473 7.73264ZM13.2587 37.7786C13.4675 32.6423 14.8654 28.0285 16.8119 24.0183C17.0291 23.5709 17.4867 23.2939 17.984 23.2963C20.319 23.3076 22.7737 23.3259 25.3428 23.3528C26.234 23.3621 26.8587 24.2355 26.6087 25.091C25.5119 28.8446 24.7245 33.075 24.5354 37.7259C24.5134 38.2674 24.0723 38.7016 23.5304 38.7014C20.1975 38.7007 17.0689 38.6998 14.1562 38.6987C13.6492 38.6985 13.2381 38.2851 13.2587 37.7786ZM25.8308 37.7786C26.0349 32.7601 26.9533 28.2426 28.205 24.3006C28.378 23.7557 28.8908 23.3944 29.4625 23.4021C32.1694 23.4387 34.9894 23.4847 37.9169 23.5418C38.6345 23.5558 39.2086 24.1418 39.2086 24.8595V37.3651V37.3848C39.2086 38.1129 38.6183 38.7032 37.8901 38.7032C33.9699 38.7031 30.2449 38.7027 26.7271 38.7021C26.2197 38.702 25.8102 38.2856 25.8308 37.7786ZM40.5051 37.3651V24.9405C40.5051 24.2017 41.1122 23.6071 41.8509 23.6217C44.8089 23.68 47.6579 23.7269 50.3923 23.7642C50.9553 23.7719 51.453 24.135 51.6194 24.6729C52.8113 28.5263 53.6793 32.9173 53.8769 37.7786C53.8975 38.2856 53.488 38.702 52.9806 38.7021C49.4708 38.7027 45.7486 38.7031 41.8236 38.7032C41.0955 38.7033 40.5051 38.113 40.5051 37.3848V37.3651ZM55.1723 37.7259C54.9908 33.2614 54.258 29.1844 53.2294 25.5447C52.9847 24.6788 53.6312 23.8048 54.5311 23.8144C57.1443 23.842 59.64 23.8609 62.0125 23.8724C62.5136 23.8749 62.9717 24.1599 63.1829 24.6143C64.9809 28.4835 66.2544 32.8949 66.453 37.7786C66.4736 38.2852 66.0624 38.6986 65.5554 38.6988C62.6462 38.6998 59.5171 38.7008 56.1774 38.7015C55.6354 38.7016 55.1943 38.2674 55.1723 37.7259ZM55.168 41.2999C55.1993 40.579 55.7847 39.9981 56.5063 39.9979C59.5448 39.9973 62.4072 39.9964 65.0865 39.9955C65.8344 39.9952 66.4357 40.6174 66.3709 41.3626C65.9287 46.4493 64.1397 50.9474 61.8302 54.7654C61.5947 55.1546 61.1695 55.3858 60.7146 55.3831C58.5858 55.3705 56.3621 55.3521 54.0473 55.3267C53.1207 55.3166 52.4933 54.3777 52.8007 53.5035C54.0558 49.9342 54.9707 45.846 55.168 41.2999ZM52.572 39.9987C53.307 39.9986 53.9021 40.6001 53.8686 41.3343C53.6419 46.3009 52.5322 50.7035 51.0634 54.4583C50.8669 54.9605 50.3759 55.2816 49.8368 55.2741C47.2559 55.2378 44.5742 55.1929 41.7966 55.138C41.0791 55.1238 40.5053 54.538 40.5053 53.8204L40.5052 41.3182C40.5051 40.5901 41.0955 39.9998 41.8236 39.9997C45.5966 39.9996 49.1823 39.9993 52.572 39.9987ZM37.8902 39.9997C38.6183 39.9997 39.2086 40.59 39.2087 41.3182L39.2088 53.7394C39.2088 54.4781 38.6019 55.0726 37.8634 55.0582C35.0409 55.0033 32.3185 54.9586 29.701 54.9229C29.1699 54.9157 28.6932 54.5916 28.5042 54.0953C27.1053 50.4207 26.0585 46.1417 25.8391 41.3342C25.8056 40.6 26.4008 39.9985 27.1357 39.9987C30.533 39.9992 34.1214 39.9996 37.8902 39.9997ZM23.2014 39.9979C23.923 39.998 24.5084 40.5789 24.5397 41.2998C24.7288 45.6578 25.5775 49.5951 26.7531 53.0578C27.0536 53.9429 26.4025 54.8815 25.4679 54.8717C23.0964 54.8467 20.8218 54.829 18.6485 54.8174C18.19 54.8149 17.7643 54.5759 17.5342 54.1793C15.394 50.4896 13.7605 46.1912 13.3408 41.3624C13.276 40.6173 13.8773 39.9951 14.6252 39.9954C17.3072 39.9963 20.1689 39.9972 23.2014 39.9979Z" fill="#FFE200"/>
<path d="M48.0962 49.5969C46.7547 49.5969 45.6671 48.5093 45.6671 47.1678V37.2905L41.7365 45.0616C41.3674 45.7912 40.6193 46.2512 39.8017 46.2512C38.9841 46.2512 38.236 45.7912 37.867 45.0616L33.9363 37.2905V47.1678C33.9363 48.5093 32.8488 49.5969 31.5072 49.5969C30.1657 49.5969 29.0781 48.5093 29.0781 47.1678V31.5008C29.0781 30.0869 30.2243 28.9408 31.6382 28.9408H32.7759C33.7419 28.9408 34.6257 29.4845 35.0611 30.3468L39.8017 39.7343L44.5707 30.3418C45.0071 29.4823 45.8894 28.9408 46.8533 28.9408H47.9653C49.3792 28.9408 50.5254 30.0869 50.5254 31.5008V47.1678C50.5254 48.5093 49.4378 49.5969 48.0962 49.5969Z" fill="#EF3125"/>
<path d="M83.7324 42.0703L51.7786 25.6945L71.0651 21.0474L82.3149 6.1928L83.7324 42.0703Z" fill="#EF3125"/>
<path fill-rule="evenodd" clip-rule="evenodd" d="M79.6119 19.5655V30.4507H67.6936C61.9579 19.5395 50.5166 12.0988 37.338 12.0988C25.3581 12.0988 14.8137 18.2476 8.68604 27.5627C13.5236 11.611 28.3434 -4.19617e-05 45.8752 -4.19617e-05C60.314 -4.19617e-05 72.9134 7.87562 79.6119 19.5655Z" fill="#EF3125"/>
<path fill-rule="evenodd" clip-rule="evenodd" d="M22.9884 68.303C13.1426 62.525 6.53223 51.8281 6.53223 39.5872C6.53223 39.481 6.53272 39.375 6.53372 39.2691L27.8558 51.0977L20.3121 52.6547C27.8977 64.608 42.6207 70.8101 57.0182 66.9523C58.0195 66.684 58.9979 66.3728 59.9518 66.0211C56.5985 68.5828 52.6989 70.545 48.3701 71.7049C39.4414 74.0973 30.3875 72.6208 22.9884 68.303Z" fill="#EF3125"/>
</g>
<defs>
<clipPath id="clip0_844_7533">
<rect width="85" height="99" fill="white"/>
</clipPath>
</defs>
</svg>
