<svg width="135" height="15" viewBox="0 0 135 15" fill="none" xmlns="http://www.w3.org/2000/svg">
<path d="M133.36 11.8752C134.188 11.8752 134.86 12.5467 134.86 13.3752C134.86 14.2036 134.188 14.8752 133.36 14.8752H124.566C123.974 14.8752 123.494 14.3952 123.494 13.8032V1.15546C123.494 0.56343 123.974 0.0834961 124.566 0.0834961H133.155C133.983 0.0834961 134.655 0.755069 134.655 1.5835C134.655 2.41192 133.983 3.0835 133.155 3.0835H127.229V5.9585H132.222C132.987 5.9585 133.607 6.57877 133.607 7.34391C133.607 8.10906 132.987 8.72933 132.222 8.72933H127.229V11.8752H133.36Z" fill="black"/>
<path d="M118.517 14.8752C117.485 14.8752 116.649 14.039 116.649 13.0074V6.06266L113.654 11.5786C113.352 12.1337 112.771 12.4793 112.139 12.4793C111.508 12.4793 110.927 12.1337 110.625 11.5786L107.63 6.06266V13.0074C107.63 14.039 106.793 14.8752 105.762 14.8752C104.73 14.8752 103.894 14.039 103.894 13.0074V2.62488C103.894 1.22131 105.032 0.0834961 106.435 0.0834961C107.368 0.0834961 108.225 0.593943 108.67 1.41349L112.139 7.81266L115.634 1.40224C116.077 0.58933 116.929 0.0834961 117.855 0.0834961C119.252 0.0834961 120.385 1.21601 120.385 2.61304V13.0074C120.385 14.039 119.548 14.8752 118.517 14.8752Z" fill="black"/>
<path d="M98.9319 14.8752C97.9004 14.8752 97.0641 14.039 97.0641 13.0074V1.95121C97.0641 0.919702 97.9004 0.0834961 98.9319 0.0834961C99.9634 0.0834961 100.8 0.919701 100.8 1.95121V7.47933V13.0074C100.8 14.039 99.9634 14.8752 98.9319 14.8752Z" fill="black"/>
<path d="M95.2405 1.5835C95.2405 2.41192 94.5689 3.0835 93.7405 3.0835H90.3207V13.0074C90.3207 14.039 89.4845 14.8752 88.453 14.8752C87.4214 14.8752 86.5852 14.039 86.5852 13.0074V3.0835H83.1426C82.3142 3.0835 81.6426 2.41192 81.6426 1.5835C81.6426 0.755069 82.3142 0.0834961 83.1426 0.0834961H93.7405C94.5689 0.0834961 95.2405 0.755069 95.2405 1.5835Z" fill="black"/>
<path d="M69.2815 0.0834961C69.921 0.0834961 70.5083 0.436091 70.8089 1.00045L73.8054 6.62516L76.844 0.994725C77.147 0.4334 77.7334 0.0834961 78.3713 0.0834961C79.7151 0.0834961 80.549 1.54509 79.8653 2.70197L75.6503 9.8335V13.0188C75.6503 14.0441 74.8192 14.8752 73.794 14.8752C72.7687 14.8752 71.9376 14.0441 71.9376 13.0188V9.79183L67.7872 2.68713C67.1132 1.53338 67.9453 0.0834961 69.2815 0.0834961Z" fill="black"/>
<path d="M64.047 11.8752C64.8754 11.8752 65.547 12.5467 65.547 13.3752C65.547 14.2036 64.8754 14.8752 64.047 14.8752H55.2532C54.6611 14.8752 54.1812 14.3952 54.1812 13.8032V1.15546C54.1812 0.56343 54.6611 0.0834961 55.2532 0.0834961H63.842C64.6704 0.0834961 65.342 0.755069 65.342 1.5835C65.342 2.41192 64.6704 3.0835 63.842 3.0835H57.9167V5.9585H62.9088C63.674 5.9585 64.2942 6.57877 64.2942 7.34391C64.2942 8.10906 63.674 8.72933 62.9088 8.72933H57.9167V11.8752H64.047Z" fill="black"/>
<path d="M40.6334 6.41683V13.0074C40.6334 14.039 39.7972 14.8752 38.7657 14.8752C37.7342 14.8752 36.898 14.039 36.898 13.0074V2.11332C36.898 0.992278 37.8068 0.0834961 38.9278 0.0834961C39.519 0.0834961 40.0808 0.341229 40.4664 0.789338L47.3527 8.79183V1.95121C47.3527 0.919701 48.1889 0.0834961 49.2204 0.0834961C50.2519 0.0834961 51.0881 0.919702 51.0881 1.95121V12.7756C51.0881 13.9352 50.1481 14.8752 48.9886 14.8752C48.3832 14.8752 47.8073 14.6139 47.4086 14.1583L40.6334 6.41683Z" fill="black"/>
<path d="M26.6773 15C25.4626 15 24.3617 14.7917 23.3747 14.375C22.4029 13.9444 21.5601 13.375 20.8464 12.6667C20.1479 11.9444 19.6089 11.1389 19.2292 10.25C18.8496 9.34722 18.6598 8.41667 18.6598 7.45833C18.6598 6.47222 18.8572 5.53472 19.252 4.64583C19.662 3.75694 20.2238 2.96528 20.9375 2.27083C21.6664 1.5625 22.5243 1.00694 23.5113 0.604166C24.4983 0.201389 25.5765 0 26.7457 0C27.9453 0 29.031 0.215278 30.0028 0.645834C30.9898 1.0625 31.8326 1.63194 32.5311 2.35417C33.2447 3.07639 33.7914 3.88889 34.171 4.79167C34.5506 5.68056 34.7404 6.59028 34.7404 7.52083C34.7404 8.50695 34.543 9.44444 34.1482 10.3333C33.7534 11.2222 33.1916 12.0208 32.4627 12.7292C31.7339 13.4236 30.8759 13.9792 29.8889 14.3958C28.9171 14.7986 27.8466 15 26.6773 15ZM22.4636 7.5C22.4636 8.06944 22.5547 8.625 22.7369 9.16667C22.9191 9.69444 23.1849 10.1667 23.5341 10.5833C23.8985 11 24.3465 11.3333 24.878 11.5833C25.4094 11.8333 26.0168 11.9583 26.7001 11.9583C27.4138 11.9583 28.0364 11.8333 28.5678 11.5833C29.0993 11.3194 29.5397 10.9722 29.8889 10.5417C30.2382 10.1111 30.4963 9.63194 30.6633 9.10417C30.8455 8.5625 30.9367 8.01389 30.9367 7.45833C30.9367 6.88889 30.8455 6.34028 30.6633 5.8125C30.4811 5.28472 30.2078 4.8125 29.8434 4.39583C29.4789 3.96528 29.031 3.63194 28.4995 3.39583C27.968 3.15972 27.3682 3.04167 26.7001 3.04167C25.9864 3.04167 25.3639 3.16667 24.8324 3.41667C24.3161 3.66667 23.8758 4.00694 23.5113 4.4375C23.1621 4.85417 22.8964 5.33333 22.7141 5.875C22.5471 6.40278 22.4636 6.94444 22.4636 7.5Z" fill="black"/>
<path d="M14.6229 14.8752C13.5914 14.8752 12.7552 14.039 12.7552 13.0074V6.06266L9.75944 11.5786C9.45798 12.1337 8.87695 12.4793 8.2453 12.4793C7.61364 12.4793 7.03262 12.1337 6.73116 11.5786L3.73544 6.06266V13.0074C3.73544 14.039 2.89923 14.8752 1.86772 14.8752C0.836207 14.8752 0 14.039 0 13.0074V2.62488C0 1.22131 1.13782 0.0834961 2.54139 0.0834961C3.47366 0.0834961 4.3311 0.593944 4.77548 1.41349L8.2453 7.81266L11.7401 1.40224C12.1833 0.589332 13.0352 0.0834961 13.961 0.0834961C15.3581 0.0834961 16.4906 1.21601 16.4906 2.61305V13.0074C16.4906 14.039 15.6544 14.8752 14.6229 14.8752Z" fill="black"/>
</svg>
